<?xml version="1.0" encoding="UTF-8"?>
<!DOCTYPE svg PUBLIC "-//W3C//DTD SVG 1.1//EN" "http://www.w3.org/Graphics/SVG/1.1/DTD/svg11.dtd">
<svg xmlns="http://www.w3.org/2000/svg" version="1.1" width="720px" height="443px" style="shape-rendering:geometricPrecision; text-rendering:geometricPrecision; image-rendering:optimizeQuality; fill-rule:evenodd; clip-rule:evenodd" xmlns:xlink="http://www.w3.org/1999/xlink">
<g><path style="opacity:1" fill="#fdfdfd" d="M -0.5,-0.5 C 12.1667,-0.5 24.8333,-0.5 37.5,-0.5C 37.5,12.1667 37.5,24.8333 37.5,37.5C 24.8333,37.5 12.1667,37.5 -0.5,37.5C -0.5,24.8333 -0.5,12.1667 -0.5,-0.5 Z"/></g>
<g><path style="opacity:1" fill="#fdfdfd" d="M -0.5,38.5 C 12.1667,38.5 24.8333,38.5 37.5,38.5C 37.5,51.5 37.5,64.5 37.5,77.5C 24.8333,77.5 12.1667,77.5 -0.5,77.5C -0.5,64.5 -0.5,51.5 -0.5,38.5 Z"/></g>
<g><path style="opacity:1" fill="#fdfdfd" d="M -0.5,78.5 C 12.1667,78.5 24.8333,78.5 37.5,78.5C 37.5,91.5 37.5,104.5 37.5,117.5C 24.8333,117.5 12.1667,117.5 -0.5,117.5C -0.5,104.5 -0.5,91.5 -0.5,78.5 Z"/></g>
<g><path style="opacity:1" fill="#fdfdfd" d="M -0.5,118.5 C 12.1667,118.5 24.8333,118.5 37.5,118.5C 37.5,131.5 37.5,144.5 37.5,157.5C 24.8333,157.5 12.1667,157.5 -0.5,157.5C -0.5,144.5 -0.5,131.5 -0.5,118.5 Z"/></g>
<g><path style="opacity:1" fill="#fdfdfd" d="M -0.5,158.5 C 12.1667,158.5 24.8333,158.5 37.5,158.5C 37.5,171.5 37.5,184.5 37.5,197.5C 24.8333,197.5 12.1667,197.5 -0.5,197.5C -0.5,184.5 -0.5,171.5 -0.5,158.5 Z"/></g>
<g><path style="opacity:1" fill="#fdfdfd" d="M -0.5,198.5 C 12.1667,198.5 24.8333,198.5 37.5,198.5C 37.5,211.5 37.5,224.5 37.5,237.5C 24.8333,237.5 12.1667,237.5 -0.5,237.5C -0.5,224.5 -0.5,211.5 -0.5,198.5 Z"/></g>
<g><path style="opacity:1" fill="#fdfdfd" d="M -0.5,238.5 C 12.1667,238.5 24.8333,238.5 37.5,238.5C 37.5,251.5 37.5,264.5 37.5,277.5C 24.8333,277.5 12.1667,277.5 -0.5,277.5C -0.5,264.5 -0.5,251.5 -0.5,238.5 Z"/></g>
<g><path style="opacity:1" fill="#fdfdfd" d="M -0.5,278.5 C 12.1667,278.5 24.8333,278.5 37.5,278.5C 37.5,291.5 37.5,304.5 37.5,317.5C 24.8333,317.5 12.1667,317.5 -0.5,317.5C -0.5,304.5 -0.5,291.5 -0.5,278.5 Z"/></g>
<g><path style="opacity:1" fill="#fdfdfd" d="M -0.5,318.5 C 12.1667,318.5 24.8333,318.5 37.5,318.5C 37.5,331.5 37.5,344.5 37.5,357.5C 24.8333,357.5 12.1667,357.5 -0.5,357.5C -0.5,344.5 -0.5,331.5 -0.5,318.5 Z"/></g>
<g><path style="opacity:1" fill="#eaeaea" d="M 37.5,-0.5 C 37.8333,-0.5 38.1667,-0.5 38.5,-0.5C 38.5,12.1667 38.5,24.8333 38.5,37.5C 51.5,37.5 64.5,37.5 77.5,37.5C 77.5,24.8333 77.5,12.1667 77.5,-0.5C 77.8333,-0.5 78.1667,-0.5 78.5,-0.5C 78.5,12.1667 78.5,24.8333 78.5,37.5C 91.5,37.5 104.5,37.5 117.5,37.5C 117.5,24.8333 117.5,12.1667 117.5,-0.5C 117.833,-0.5 118.167,-0.5 118.5,-0.5C 118.5,12.1667 118.5,24.8333 118.5,37.5C 131.5,37.5 144.5,37.5 157.5,37.5C 157.5,24.8333 157.5,12.1667 157.5,-0.5C 157.833,-0.5 158.167,-0.5 158.5,-0.5C 158.5,12.1667 158.5,24.8333 158.5,37.5C 210.5,37.8333 210.5,38.1667 158.5,38.5C 158.5,51.5 158.5,64.5 158.5,77.5C 210.5,77.8333 210.5,78.1667 158.5,78.5C 158.5,121.5 158.5,164.5 158.5,207.5C 158.167,207.5 157.833,207.5 157.5,207.5C 157.5,204.5 157.5,201.5 157.5,198.5C 144.086,197.863 130.919,198.53 118,200.5C 105.081,198.53 91.9144,197.863 78.5,198.5C 78.5,201.5 78.5,204.5 78.5,207.5C 87.8333,207.833 87.8333,208.167 78.5,208.5C 78.5,218.167 78.5,227.833 78.5,237.5C 91.5,237.5 104.5,237.5 117.5,237.5C 117.833,205.5 118.167,205.5 118.5,237.5C 131.5,237.5 144.5,237.5 157.5,237.5C 157.5,227.833 157.5,218.167 157.5,208.5C 157.833,208.5 158.167,208.5 158.5,208.5C 158.5,218.167 158.5,227.833 158.5,237.5C 171.5,237.5 184.5,237.5 197.5,237.5C 197.5,227.833 197.5,218.167 197.5,208.5C 197.833,208.5 198.167,208.5 198.5,208.5C 198.5,218.167 198.5,227.833 198.5,237.5C 204.833,237.5 211.167,237.5 217.5,237.5C 217.5,237.833 217.5,238.167 217.5,238.5C 211.167,238.5 204.833,238.5 198.5,238.5C 198.5,251.5 198.5,264.5 198.5,277.5C 211.5,277.5 224.5,277.5 237.5,277.5C 237.5,274.5 237.5,271.5 237.5,268.5C 251.167,268.5 264.833,268.5 278.5,268.5C 278.5,271.167 278.5,273.833 278.5,276.5C 276.833,276.5 275.167,276.5 273.5,276.5C 273.5,279.5 273.5,282.5 273.5,285.5C 272.418,276.212 270.752,276.212 268.5,285.5C 267.723,283.219 266.723,281.052 265.5,279C 264.212,278.761 263.212,279.261 262.5,280.5C 261.167,280.5 259.833,280.5 258.5,280.5C 258.5,279.5 258.5,278.5 258.5,277.5C 263.5,276.997 263.167,276.664 257.5,276.5C 257.5,279.5 257.5,282.5 257.5,285.5C 256.686,283.369 256.186,281.036 256,278.5C 255.998,281.051 255.164,283.051 253.5,284.5C 252.167,284.5 250.833,284.5 249.5,284.5C 249.5,282.167 249.5,279.833 249.5,277.5C 254.5,276.997 254.167,276.664 248.5,276.5C 248.5,279.5 248.5,282.5 248.5,285.5C 247.532,283.393 247.198,281.059 247.5,278.5C 244.5,278.5 241.5,278.5 238.5,278.5C 238.5,291.5 238.5,304.5 238.5,317.5C 251.5,317.5 264.5,317.5 277.5,317.5C 277.5,306.833 277.5,296.167 277.5,285.5C 277.833,285.5 278.167,285.5 278.5,285.5C 278.5,296.167 278.5,306.833 278.5,317.5C 291.5,317.5 304.5,317.5 317.5,317.5C 317.5,304.5 317.5,291.5 317.5,278.5C 306.979,277.939 296.645,278.605 286.5,280.5C 285.167,280.5 283.833,280.5 282.5,280.5C 282.5,279.5 282.5,278.5 282.5,277.5C 283.833,277.5 285.167,277.5 286.5,277.5C 296.833,277.5 307.167,277.5 317.5,277.5C 317.5,274.5 317.5,271.5 317.5,268.5C 317.833,268.5 318.167,268.5 318.5,268.5C 318.5,271.5 318.5,274.5 318.5,277.5C 331.5,277.5 344.5,277.5 357.5,277.5C 357.5,264.5 357.5,251.5 357.5,238.5C 344.5,238.5 331.5,238.5 318.5,238.5C 318.5,238.167 318.5,237.833 318.5,237.5C 331.5,237.5 344.5,237.5 357.5,237.5C 357.5,224.5 357.5,211.5 357.5,198.5C 357.833,198.5 358.167,198.5 358.5,198.5C 358.5,211.5 358.5,224.5 358.5,237.5C 371.5,237.5 384.5,237.5 397.5,237.5C 397.5,224.5 397.5,211.5 397.5,198.5C 397.833,198.5 398.167,198.5 398.5,198.5C 398.5,211.5 398.5,224.5 398.5,237.5C 411.5,237.5 424.5,237.5 437.5,237.5C 437.5,224.5 437.5,211.5 437.5,198.5C 437.833,198.5 438.167,198.5 438.5,198.5C 438.5,211.5 438.5,224.5 438.5,237.5C 448.083,237.818 457.583,237.485 467,236.5C 467.5,237 468,237.5 468.5,238C 458.506,238.5 448.506,238.666 438.5,238.5C 438.5,251.5 438.5,264.5 438.5,277.5C 451.5,277.5 464.5,277.5 477.5,277.5C 477.334,267.494 477.5,257.494 478,247.5C 484.667,254.167 491.333,260.833 498,267.5C 503.369,261.964 508.869,256.63 514.5,251.5C 515.708,250.766 517.041,250.433 518.5,250.5C 518.5,259.5 518.5,268.5 518.5,277.5C 531.5,277.5 544.5,277.5 557.5,277.5C 557.5,268.5 557.5,259.5 557.5,250.5C 557.833,250.5 558.167,250.5 558.5,250.5C 558.5,259.5 558.5,268.5 558.5,277.5C 571.5,277.5 584.5,277.5 597.5,277.5C 597.833,249.5 598.167,249.5 598.5,277.5C 598.5,277.833 598.5,278.167 598.5,278.5C 598.5,291.5 598.5,304.5 598.5,317.5C 598.5,317.833 598.5,318.167 598.5,318.5C 598.5,331.5 598.5,344.5 598.5,357.5C 598.5,357.833 598.5,358.167 598.5,358.5C 598.5,371.5 598.5,384.5 598.5,397.5C 611.5,397.5 624.5,397.5 637.5,397.5C 637.5,384.5 637.5,371.5 637.5,358.5C 637.833,358.5 638.167,358.5 638.5,358.5C 638.5,371.5 638.5,384.5 638.5,397.5C 651.5,397.5 664.5,397.5 677.5,397.5C 677.5,384.5 677.5,371.5 677.5,358.5C 677.5,358.167 677.5,357.833 677.5,357.5C 677.5,344.5 677.5,331.5 677.5,318.5C 677.833,318.5 678.167,318.5 678.5,318.5C 678.5,331.5 678.5,344.5 678.5,357.5C 691.5,357.5 704.5,357.5 717.5,357.5C 717.5,344.5 717.5,331.5 717.5,318.5C 717.5,318.167 717.5,317.833 717.5,317.5C 717.5,304.5 717.5,291.5 717.5,278.5C 704.5,278.5 691.5,278.5 678.5,278.5C 678.5,278.167 678.5,277.833 678.5,277.5C 691.5,277.5 704.5,277.5 717.5,277.5C 717.5,264.5 717.5,251.5 717.5,238.5C 717.5,238.167 717.5,237.833 717.5,237.5C 717.5,224.5 717.5,211.5 717.5,198.5C 704.5,198.5 691.5,198.5 678.5,198.5C 678.5,198.167 678.5,197.833 678.5,197.5C 691.5,197.5 704.5,197.5 717.5,197.5C 717.5,184.5 717.5,171.5 717.5,158.5C 717.5,158.167 717.5,157.833 717.5,157.5C 717.5,144.5 717.5,131.5 717.5,118.5C 717.5,118.167 717.5,117.833 717.5,117.5C 717.5,104.5 717.5,91.5 717.5,78.5C 717.5,78.1667 717.5,77.8333 717.5,77.5C 717.5,64.5 717.5,51.5 717.5,38.5C 717.5,38.1667 717.5,37.8333 717.5,37.5C 717.5,24.8333 717.5,12.1667 717.5,-0.5C 718.167,-0.5 718.833,-0.5 719.5,-0.5C 719.5,147.167 719.5,294.833 719.5,442.5C 479.5,442.5 239.5,442.5 -0.5,442.5C -0.5,440.833 -0.5,439.167 -0.5,437.5C 12.1667,437.5 24.8333,437.5 37.5,437.5C 37.5,424.5 37.5,411.5 37.5,398.5C 24.8333,398.5 12.1667,398.5 -0.5,398.5C -0.5,398.167 -0.5,397.833 -0.5,397.5C 12.1667,397.5 24.8333,397.5 37.5,397.5C 37.5,384.5 37.5,371.5 37.5,358.5C 24.8333,358.5 12.1667,358.5 -0.5,358.5C -0.5,358.167 -0.5,357.833 -0.5,357.5C 12.1667,357.5 24.8333,357.5 37.5,357.5C 37.5,344.5 37.5,331.5 37.5,318.5C 24.8333,318.5 12.1667,318.5 -0.5,318.5C -0.5,318.167 -0.5,317.833 -0.5,317.5C 12.1667,317.5 24.8333,317.5 37.5,317.5C 37.5,304.5 37.5,291.5 37.5,278.5C 24.8333,278.5 12.1667,278.5 -0.5,278.5C -0.5,278.167 -0.5,277.833 -0.5,277.5C 12.1667,277.5 24.8333,277.5 37.5,277.5C 37.5,264.5 37.5,251.5 37.5,238.5C 24.8333,238.5 12.1667,238.5 -0.5,238.5C -0.5,238.167 -0.5,237.833 -0.5,237.5C 12.1667,237.5 24.8333,237.5 37.5,237.5C 37.5,224.5 37.5,211.5 37.5,198.5C 24.8333,198.5 12.1667,198.5 -0.5,198.5C -0.5,198.167 -0.5,197.833 -0.5,197.5C 12.1667,197.5 24.8333,197.5 37.5,197.5C 37.5,184.5 37.5,171.5 37.5,158.5C 24.8333,158.5 12.1667,158.5 -0.5,158.5C -0.5,158.167 -0.5,157.833 -0.5,157.5C 12.1667,157.5 24.8333,157.5 37.5,157.5C 37.5,144.5 37.5,131.5 37.5,118.5C 24.8333,118.5 12.1667,118.5 -0.5,118.5C -0.5,118.167 -0.5,117.833 -0.5,117.5C 12.1667,117.5 24.8333,117.5 37.5,117.5C 37.5,104.5 37.5,91.5 37.5,78.5C 24.8333,78.5 12.1667,78.5 -0.5,78.5C -0.5,78.1667 -0.5,77.8333 -0.5,77.5C 12.1667,77.5 24.8333,77.5 37.5,77.5C 37.5,64.5 37.5,51.5 37.5,38.5C 24.8333,38.5 12.1667,38.5 -0.5,38.5C -0.5,38.1667 -0.5,37.8333 -0.5,37.5C 12.1667,37.5 24.8333,37.5 37.5,37.5C 37.5,24.8333 37.5,12.1667 37.5,-0.5 Z"/></g>
<g><path style="opacity:1" fill="#fdfdfd" d="M 518.5,318.5 C 531.5,318.5 544.5,318.5 557.5,318.5C 557.5,331.5 557.5,344.5 557.5,357.5C 544.5,357.5 531.5,357.5 518.5,357.5C 518.5,344.5 518.5,331.5 518.5,318.5 Z"/></g>
<g><path style="opacity:1" fill="#fdfdfd" d="M 478.5,318.5 C 491.5,318.5 504.5,318.5 517.5,318.5C 517.5,331.5 517.5,344.5 517.5,357.5C 504.5,357.5 491.5,357.5 478.5,357.5C 478.5,344.5 478.5,331.5 478.5,318.5 Z"/></g>
<g><path style="opacity:1" fill="#fdfdfd" d="M 438.5,318.5 C 451.5,318.5 464.5,318.5 477.5,318.5C 477.5,331.5 477.5,344.5 477.5,357.5C 464.5,357.5 451.5,357.5 438.5,357.5C 438.5,344.5 438.5,331.5 438.5,318.5 Z"/></g>
<g><path style="opacity:1" fill="#fdfdfd" d="M 398.5,318.5 C 411.5,318.5 424.5,318.5 437.5,318.5C 437.5,331.5 437.5,344.5 437.5,357.5C 424.5,357.5 411.5,357.5 398.5,357.5C 398.5,344.5 398.5,331.5 398.5,318.5 Z"/></g>
<g><path style="opacity:1" fill="#fdfdfd" d="M 358.5,318.5 C 371.5,318.5 384.5,318.5 397.5,318.5C 397.5,331.5 397.5,344.5 397.5,357.5C 384.5,357.5 371.5,357.5 358.5,357.5C 358.5,344.5 358.5,331.5 358.5,318.5 Z"/></g>
<g><path style="opacity:1" fill="#fdfdfd" d="M 318.5,318.5 C 331.5,318.5 344.5,318.5 357.5,318.5C 357.5,331.5 357.5,344.5 357.5,357.5C 344.5,357.5 331.5,357.5 318.5,357.5C 318.5,344.5 318.5,331.5 318.5,318.5 Z"/></g>
<g><path style="opacity:1" fill="#fdfdfd" d="M 278.5,318.5 C 291.5,318.5 304.5,318.5 317.5,318.5C 317.5,331.5 317.5,344.5 317.5,357.5C 304.5,357.5 291.5,357.5 278.5,357.5C 278.5,344.5 278.5,331.5 278.5,318.5 Z"/></g>
<g><path style="opacity:1" fill="#fdfdfd" d="M 238.5,318.5 C 251.5,318.5 264.5,318.5 277.5,318.5C 277.5,331.5 277.5,344.5 277.5,357.5C 264.5,357.5 251.5,357.5 238.5,357.5C 238.5,344.5 238.5,331.5 238.5,318.5 Z"/></g>
<g><path style="opacity:1" fill="#fdfdfd" d="M 198.5,318.5 C 211.5,318.5 224.5,318.5 237.5,318.5C 237.5,331.5 237.5,344.5 237.5,357.5C 224.5,357.5 211.5,357.5 198.5,357.5C 198.5,344.5 198.5,331.5 198.5,318.5 Z"/></g>
<g><path style="opacity:1" fill="#fdfdfd" d="M 158.5,318.5 C 171.5,318.5 184.5,318.5 197.5,318.5C 197.5,331.5 197.5,344.5 197.5,357.5C 184.5,357.5 171.5,357.5 158.5,357.5C 158.5,344.5 158.5,331.5 158.5,318.5 Z"/></g>
<g><path style="opacity:1" fill="#fdfdfd" d="M 118.5,318.5 C 131.5,318.5 144.5,318.5 157.5,318.5C 157.5,331.5 157.5,344.5 157.5,357.5C 144.5,357.5 131.5,357.5 118.5,357.5C 118.5,344.5 118.5,331.5 118.5,318.5 Z"/></g>
<g><path style="opacity:1" fill="#fdfdfd" d="M 78.5,318.5 C 91.5,318.5 104.5,318.5 117.5,318.5C 117.5,331.5 117.5,344.5 117.5,357.5C 104.5,357.5 91.5,357.5 78.5,357.5C 78.5,344.5 78.5,331.5 78.5,318.5 Z"/></g>
<g><path style="opacity:1" fill="#fdfdfd" d="M 38.5,318.5 C 51.5,318.5 64.5,318.5 77.5,318.5C 77.5,331.5 77.5,344.5 77.5,357.5C 64.5,357.5 51.5,357.5 38.5,357.5C 38.5,344.5 38.5,331.5 38.5,318.5 Z"/></g>
<g><path style="opacity:1" fill="#22081c" d="M 278.5,276.5 C 278.101,277.521 276.767,277.854 274.5,277.5C 274.5,278.5 274.5,279.5 274.5,280.5C 279.833,280.833 279.833,281.167 274.5,281.5C 274.5,282.5 274.5,283.5 274.5,284.5C 276.767,284.146 278.101,284.479 278.5,285.5C 278.167,285.5 277.833,285.5 277.5,285.5C 276.167,285.5 274.833,285.5 273.5,285.5C 273.5,282.5 273.5,279.5 273.5,276.5C 275.167,276.5 276.833,276.5 278.5,276.5 Z"/></g>
<g><path style="opacity:1" fill="#290a25" d="M 286.5,277.5 C 285.167,277.5 283.833,277.5 282.5,277.5C 282.5,278.5 282.5,279.5 282.5,280.5C 283.833,280.5 285.167,280.5 286.5,280.5C 286.631,281.239 286.464,281.906 286,282.5C 284.989,281.663 283.822,281.33 282.5,281.5C 282.657,282.873 282.49,284.207 282,285.5C 281.502,282.518 281.335,279.518 281.5,276.5C 283.415,276.216 285.081,276.549 286.5,277.5 Z"/></g>
<g><path style="opacity:1" fill="#fdfdfd" d="M 678.5,278.5 C 691.5,278.5 704.5,278.5 717.5,278.5C 717.5,291.5 717.5,304.5 717.5,317.5C 704.5,317.5 691.5,317.5 678.5,317.5C 678.5,304.5 678.5,291.5 678.5,278.5 Z"/></g>
<g><path style="opacity:1" fill="#fdfdfd" d="M 598.5,278.5 C 611.5,278.5 624.5,278.5 637.5,278.5C 637.5,291.5 637.5,304.5 637.5,317.5C 624.5,317.5 611.5,317.5 598.5,317.5C 598.5,304.5 598.5,291.5 598.5,278.5 Z"/></g>
<g><path style="opacity:1" fill="#fdfdfd" d="M 558.5,278.5 C 571.5,278.5 584.5,278.5 597.5,278.5C 597.5,291.5 597.5,304.5 597.5,317.5C 584.5,317.5 571.5,317.5 558.5,317.5C 558.5,304.5 558.5,291.5 558.5,278.5 Z"/></g>
<g><path style="opacity:1" fill="#fdfdfd" d="M 518.5,278.5 C 531.5,278.5 544.5,278.5 557.5,278.5C 557.5,291.5 557.5,304.5 557.5,317.5C 544.5,317.5 531.5,317.5 518.5,317.5C 518.5,304.5 518.5,291.5 518.5,278.5 Z"/></g>
<g><path style="opacity:1" fill="#fbfbfa" d="M 495.5,278.5 C 493.151,283.895 494.651,285.895 500,284.5C 500.232,285.737 500.732,286.737 501.5,287.5C 502.779,286.032 504.446,285.365 506.5,285.5C 506.336,279.833 506.003,279.5 505.5,284.5C 504.5,284.5 503.5,284.5 502.5,284.5C 502.5,282.833 502.5,281.167 502.5,279.5C 507.453,278.671 512.453,278.337 517.5,278.5C 517.5,291.5 517.5,304.5 517.5,317.5C 504.5,317.5 491.5,317.5 478.5,317.5C 478.5,304.5 478.5,291.5 478.5,278.5C 482.711,278.177 486.544,279.177 490,281.5C 490.5,281.333 491,281.167 491.5,281C 490.328,280.581 489.328,279.915 488.5,279C 490.88,279.522 493.213,279.355 495.5,278.5 Z"/></g>
<g><path style="opacity:1" fill="#ab8f81" d="M 495.5,278.5 C 498.05,278.561 499.55,279.894 500,282.5C 500.21,280.942 500.71,279.609 501.5,278.5C 501.5,281.5 501.5,284.5 501.5,287.5C 500.732,286.737 500.232,285.737 500,284.5C 494.651,285.895 493.151,283.895 495.5,278.5 Z"/></g>
<g><path style="opacity:1" fill="#3d417e" d="M 501.5,278.5 C 502.167,278.5 502.5,278.833 502.5,279.5C 502.5,281.167 502.5,282.833 502.5,284.5C 503.5,284.5 504.5,284.5 505.5,284.5C 506.003,279.5 506.336,279.833 506.5,285.5C 504.446,285.365 502.779,286.032 501.5,287.5C 501.5,284.5 501.5,281.5 501.5,278.5 Z"/></g>
<g><path style="opacity:1" fill="#fdfdfd" d="M 438.5,278.5 C 451.5,278.5 464.5,278.5 477.5,278.5C 477.5,291.5 477.5,304.5 477.5,317.5C 464.5,317.5 451.5,317.5 438.5,317.5C 438.5,304.5 438.5,291.5 438.5,278.5 Z"/></g>
<g><path style="opacity:1" fill="#fdfdfd" d="M 398.5,278.5 C 411.5,278.5 424.5,278.5 437.5,278.5C 437.5,291.5 437.5,304.5 437.5,317.5C 424.5,317.5 411.5,317.5 398.5,317.5C 398.5,304.5 398.5,291.5 398.5,278.5 Z"/></g>
<g><path style="opacity:1" fill="#fdfdfd" d="M 358.5,278.5 C 371.5,278.5 384.5,278.5 397.5,278.5C 397.5,291.5 397.5,304.5 397.5,317.5C 384.5,317.5 371.5,317.5 358.5,317.5C 358.5,304.5 358.5,291.5 358.5,278.5 Z"/></g>
<g><path style="opacity:1" fill="#fdfdfd" d="M 318.5,278.5 C 331.5,278.5 344.5,278.5 357.5,278.5C 357.5,291.5 357.5,304.5 357.5,317.5C 344.5,317.5 331.5,317.5 318.5,317.5C 318.5,304.5 318.5,291.5 318.5,278.5 Z"/></g>
<g><path style="opacity:1" fill="#fcfcfc" d="M 278.5,268.5 C 291.5,268.5 304.5,268.5 317.5,268.5C 317.5,271.5 317.5,274.5 317.5,277.5C 307.167,277.5 296.833,277.5 286.5,277.5C 285.081,276.549 283.415,276.216 281.5,276.5C 281.335,279.518 281.502,282.518 282,285.5C 282.49,284.207 282.657,282.873 282.5,281.5C 283.822,281.33 284.989,281.663 286,282.5C 286.464,281.906 286.631,281.239 286.5,280.5C 296.645,278.605 306.979,277.939 317.5,278.5C 317.5,291.5 317.5,304.5 317.5,317.5C 304.5,317.5 291.5,317.5 278.5,317.5C 278.5,306.833 278.5,296.167 278.5,285.5C 278.101,284.479 276.767,284.146 274.5,284.5C 274.5,283.5 274.5,282.5 274.5,281.5C 279.833,281.167 279.833,280.833 274.5,280.5C 274.5,279.5 274.5,278.5 274.5,277.5C 276.767,277.854 278.101,277.521 278.5,276.5C 278.5,273.833 278.5,271.167 278.5,268.5 Z"/></g>
<g><path style="opacity:1" fill="#173163" d="M 253.5,284.5 C 252.081,285.451 250.415,285.784 248.5,285.5C 248.5,282.5 248.5,279.5 248.5,276.5C 254.167,276.664 254.5,276.997 249.5,277.5C 249.5,279.833 249.5,282.167 249.5,284.5C 250.833,284.5 252.167,284.5 253.5,284.5 Z"/></g>
<g><path style="opacity:1" fill="#fcfcfc" d="M 248.5,285.5 C 250.415,285.784 252.081,285.451 253.5,284.5C 255.164,283.051 255.998,281.051 256,278.5C 256.186,281.036 256.686,283.369 257.5,285.5C 258.434,284.432 258.768,283.099 258.5,281.5C 259.822,281.33 260.989,281.663 262,282.5C 262.464,281.906 262.631,281.239 262.5,280.5C 263.212,279.261 264.212,278.761 265.5,279C 266.723,281.052 267.723,283.219 268.5,285.5C 270.752,276.212 272.418,276.212 273.5,285.5C 274.833,285.5 276.167,285.5 277.5,285.5C 277.5,296.167 277.5,306.833 277.5,317.5C 264.5,317.5 251.5,317.5 238.5,317.5C 238.5,304.5 238.5,291.5 238.5,278.5C 241.5,278.5 244.5,278.5 247.5,278.5C 247.198,281.059 247.532,283.393 248.5,285.5 Z"/></g>
<g><path style="opacity:1" fill="#fdfdfd" d="M 198.5,278.5 C 211.5,278.5 224.5,278.5 237.5,278.5C 237.5,291.5 237.5,304.5 237.5,317.5C 224.5,317.5 211.5,317.5 198.5,317.5C 198.5,304.5 198.5,291.5 198.5,278.5 Z"/></g>
<g><path style="opacity:1" fill="#fdfdfd" d="M 158.5,278.5 C 171.5,278.5 184.5,278.5 197.5,278.5C 197.5,291.5 197.5,304.5 197.5,317.5C 184.5,317.5 171.5,317.5 158.5,317.5C 158.5,304.5 158.5,291.5 158.5,278.5 Z"/></g>
<g><path style="opacity:1" fill="#fdfdfd" d="M 118.5,278.5 C 131.5,278.5 144.5,278.5 157.5,278.5C 157.5,291.5 157.5,304.5 157.5,317.5C 144.5,317.5 131.5,317.5 118.5,317.5C 118.5,304.5 118.5,291.5 118.5,278.5 Z"/></g>
<g><path style="opacity:1" fill="#fdfdfd" d="M 78.5,278.5 C 91.5,278.5 104.5,278.5 117.5,278.5C 117.5,291.5 117.5,304.5 117.5,317.5C 104.5,317.5 91.5,317.5 78.5,317.5C 78.5,304.5 78.5,291.5 78.5,278.5 Z"/></g>
<g><path style="opacity:1" fill="#fdfdfd" d="M 38.5,278.5 C 51.5,278.5 64.5,278.5 77.5,278.5C 77.5,291.5 77.5,304.5 77.5,317.5C 64.5,317.5 51.5,317.5 38.5,317.5C 38.5,304.5 38.5,291.5 38.5,278.5 Z"/></g>
<g><path style="opacity:1" fill="#1b334f" d="M 262.5,280.5 C 262.631,281.239 262.464,281.906 262,282.5C 260.989,281.663 259.822,281.33 258.5,281.5C 258.768,283.099 258.434,284.432 257.5,285.5C 257.5,282.5 257.5,279.5 257.5,276.5C 263.167,276.664 263.5,276.997 258.5,277.5C 258.5,278.5 258.5,279.5 258.5,280.5C 259.833,280.5 261.167,280.5 262.5,280.5 Z"/></g>
<g><path style="opacity:1" fill="#11121b" d="M 637.5,249.5 C 637.833,249.5 638.167,249.5 638.5,249.5C 642.555,249.824 646.555,249.491 650.5,248.5C 649.494,247.604 649.494,246.938 650.5,246.5C 652.833,247.667 655.167,248.833 657.5,250C 655.167,251.167 652.833,252.333 650.5,253.5C 649.494,253.062 649.494,252.396 650.5,251.5C 646.555,250.509 642.555,250.176 638.5,250.5C 638.167,250.5 637.833,250.5 637.5,250.5C 634.5,250.5 631.5,250.5 628.5,250.5C 627.227,248.916 627.227,248.582 628.5,249.5C 631.5,249.5 634.5,249.5 637.5,249.5 Z"/></g>
<g><path style="opacity:1" fill="#fdfdfd" d="M 717.5,238.5 C 717.5,251.5 717.5,264.5 717.5,277.5C 704.5,277.5 691.5,277.5 678.5,277.5C 678.5,264.5 678.5,251.5 678.5,238.5C 691.5,238.5 704.5,238.5 717.5,238.5 Z"/></g>
<g><path style="opacity:1" fill="#fcfcfc" d="M 638.5,250.5 C 642.555,250.176 646.555,250.509 650.5,251.5C 649.494,252.396 649.494,253.062 650.5,253.5C 652.833,252.333 655.167,251.167 657.5,250C 655.167,248.833 652.833,247.667 650.5,246.5C 649.494,246.938 649.494,247.604 650.5,248.5C 646.555,249.491 642.555,249.824 638.5,249.5C 638.5,245.833 638.5,242.167 638.5,238.5C 651.5,238.5 664.5,238.5 677.5,238.5C 677.5,251.5 677.5,264.5 677.5,277.5C 664.5,277.5 651.5,277.5 638.5,277.5C 638.5,268.5 638.5,259.5 638.5,250.5 Z"/></g>
<g><path style="opacity:1" fill="#fdfdfd" d="M 398.5,238.5 C 411.5,238.5 424.5,238.5 437.5,238.5C 437.5,251.5 437.5,264.5 437.5,277.5C 424.5,277.5 411.5,277.5 398.5,277.5C 398.5,264.5 398.5,251.5 398.5,238.5 Z"/></g>
<g><path style="opacity:1" fill="#fdfdfd" d="M 358.5,238.5 C 371.5,238.5 384.5,238.5 397.5,238.5C 397.5,251.5 397.5,264.5 397.5,277.5C 384.5,277.5 371.5,277.5 358.5,277.5C 358.5,264.5 358.5,251.5 358.5,238.5 Z"/></g>
<g><path style="opacity:1" fill="#fdfdfd" d="M 318.5,238.5 C 331.5,238.5 344.5,238.5 357.5,238.5C 357.5,251.5 357.5,264.5 357.5,277.5C 344.5,277.5 331.5,277.5 318.5,277.5C 318.5,274.5 318.5,271.5 318.5,268.5C 318.5,258.5 318.5,248.5 318.5,238.5 Z"/></g>
<g><path style="opacity:1" fill="#fdfdfd" d="M 217.5,238.5 C 217.5,248.5 217.5,258.5 217.5,268.5C 224.167,268.5 230.833,268.5 237.5,268.5C 237.5,271.5 237.5,274.5 237.5,277.5C 224.5,277.5 211.5,277.5 198.5,277.5C 198.5,264.5 198.5,251.5 198.5,238.5C 204.833,238.5 211.167,238.5 217.5,238.5 Z"/></g>
<g><path style="opacity:1" fill="#fdfdfd" d="M 158.5,238.5 C 171.5,238.5 184.5,238.5 197.5,238.5C 197.5,251.5 197.5,264.5 197.5,277.5C 184.5,277.5 171.5,277.5 158.5,277.5C 158.5,264.5 158.5,251.5 158.5,238.5 Z"/></g>
<g><path style="opacity:1" fill="#fdfdfd" d="M 118.5,238.5 C 131.5,238.5 144.5,238.5 157.5,238.5C 157.5,251.5 157.5,264.5 157.5,277.5C 144.5,277.5 131.5,277.5 118.5,277.5C 118.5,264.5 118.5,251.5 118.5,238.5 Z"/></g>
<g><path style="opacity:1" fill="#fdfdfd" d="M 78.5,238.5 C 91.5,238.5 104.5,238.5 117.5,238.5C 117.5,251.5 117.5,264.5 117.5,277.5C 104.5,277.5 91.5,277.5 78.5,277.5C 78.5,264.5 78.5,251.5 78.5,238.5 Z"/></g>
<g><path style="opacity:1" fill="#fdfdfd" d="M 38.5,238.5 C 51.5,238.5 64.5,238.5 77.5,238.5C 77.5,251.5 77.5,264.5 77.5,277.5C 64.5,277.5 51.5,277.5 38.5,277.5C 38.5,264.5 38.5,251.5 38.5,238.5 Z"/></g>
<g><path style="opacity:1" fill="#fdfdfd" d="M 158.5,208.5 C 171.5,208.5 184.5,208.5 197.5,208.5C 197.5,218.167 197.5,227.833 197.5,237.5C 184.5,237.5 171.5,237.5 158.5,237.5C 158.5,227.833 158.5,218.167 158.5,208.5 Z"/></g>
<g><path style="opacity:1" fill="#fdfdfd" d="M 38.5,208.5 C 51.5,208.5 64.5,208.5 77.5,208.5C 77.5,218.167 77.5,227.833 77.5,237.5C 64.5,237.5 51.5,237.5 38.5,237.5C 38.5,227.833 38.5,218.167 38.5,208.5 Z"/></g>
<g><path style="opacity:1" fill="#040404" d="M 198.5,208.5 C 198.167,208.5 197.833,208.5 197.5,208.5C 184.5,208.5 171.5,208.5 158.5,208.5C 158.167,208.5 157.833,208.5 157.5,208.5C 121.5,208.167 121.5,207.833 157.5,207.5C 157.833,207.5 158.167,207.5 158.5,207.5C 172.516,207.833 186.516,207.499 200.5,206.5C 199.494,205.604 199.494,204.938 200.5,204.5C 202.833,205.667 205.167,206.833 207.5,208C 205.167,209.167 202.833,210.333 200.5,211.5C 199.494,211.062 199.494,210.396 200.5,209.5C 200.043,208.702 199.376,208.369 198.5,208.5 Z"/></g>
<g><path style="opacity:1" fill="#fdfdfd" d="M 678.5,198.5 C 691.5,198.5 704.5,198.5 717.5,198.5C 717.5,211.5 717.5,224.5 717.5,237.5C 704.5,237.5 691.5,237.5 678.5,237.5C 678.5,224.5 678.5,211.5 678.5,198.5 Z"/></g>
<g><path style="opacity:1" fill="#fdfdfd" d="M 398.5,198.5 C 411.5,198.5 424.5,198.5 437.5,198.5C 437.5,211.5 437.5,224.5 437.5,237.5C 424.5,237.5 411.5,237.5 398.5,237.5C 398.5,224.5 398.5,211.5 398.5,198.5 Z"/></g>
<g><path style="opacity:1" fill="#fdfdfd" d="M 358.5,198.5 C 371.5,198.5 384.5,198.5 397.5,198.5C 397.5,211.5 397.5,224.5 397.5,237.5C 384.5,237.5 371.5,237.5 358.5,237.5C 358.5,224.5 358.5,211.5 358.5,198.5 Z"/></g>
<g><path style="opacity:1" fill="#fdfdfd" d="M 357.5,198.5 C 357.5,211.5 357.5,224.5 357.5,237.5C 344.5,237.5 331.5,237.5 318.5,237.5C 318.5,224.5 318.5,211.5 318.5,198.5C 331.5,198.5 344.5,198.5 357.5,198.5 Z"/></g>
<g><path style="opacity:1" fill="#f9f9f8" d="M 157.5,207.5 C 121.5,207.833 121.5,208.167 157.5,208.5C 157.5,218.167 157.5,227.833 157.5,237.5C 144.5,237.5 131.5,237.5 118.5,237.5C 118.167,205.5 117.833,205.5 117.5,237.5C 104.5,237.5 91.5,237.5 78.5,237.5C 78.5,227.833 78.5,218.167 78.5,208.5C 87.8333,208.167 87.8333,207.833 78.5,207.5C 78.5,204.5 78.5,201.5 78.5,198.5C 91.9144,197.863 105.081,198.53 118,200.5C 130.919,198.53 144.086,197.863 157.5,198.5C 157.5,201.5 157.5,204.5 157.5,207.5 Z"/></g>
<g><path style="opacity:1" fill="#1e273f" d="M 124.5,207.5 C 125.087,208.767 125.087,209.767 124.5,210.5C 123.224,209.386 123.224,208.386 124.5,207.5 Z"/></g>
<g><path style="opacity:1" fill="#fcddac" d="M 120.5,205.5 C 120.5,206.833 120.5,208.167 120.5,209.5C 119.414,209.38 118.747,208.713 118.5,207.5C 118.747,206.287 119.414,205.62 120.5,205.5 Z"/></g>
<g><path style="opacity:1" fill="#7a6179" d="M 120.5,205.5 C 119.414,205.62 118.747,206.287 118.5,207.5C 118.747,208.713 119.414,209.38 120.5,209.5C 118.316,210.983 116.983,210.316 116.5,207.5C 116.983,204.684 118.316,204.017 120.5,205.5 Z"/></g>
<g><path style="opacity:1" fill="#2f0b23" d="M 96.5,205.5 C 98.0858,206.148 99.7525,206.648 101.5,207C 99.5975,207.199 98.0975,208.033 97,209.5C 96.51,208.207 96.3433,206.873 96.5,205.5 Z"/></g>
<g><path style="opacity:1" fill="#343669" d="M 124.5,207.5 C 124.918,206.778 125.584,206.278 126.5,206C 122.774,204.957 123.107,204.457 127.5,204.5C 127.662,206.527 127.495,208.527 127,210.5C 126.764,208.881 125.931,207.881 124.5,207.5 Z"/></g>
<g><path style="opacity:1" fill="#bcb0b0" d="M 110.5,202.5 C 114.979,202.898 116.312,205.231 114.5,209.5C 111.167,211.167 109.167,210.167 108.5,206.5C 108.803,204.886 109.47,203.552 110.5,202.5 Z"/></g>
<g><path style="opacity:1" fill="#fdfdfd" d="M 717.5,158.5 C 717.5,171.5 717.5,184.5 717.5,197.5C 704.5,197.5 691.5,197.5 678.5,197.5C 678.5,184.5 678.5,171.5 678.5,158.5C 691.5,158.5 704.5,158.5 717.5,158.5 Z"/></g>
<g><path style="opacity:1" fill="#fdfdfd" d="M 118.5,158.5 C 131.5,158.5 144.5,158.5 157.5,158.5C 157.5,171.5 157.5,184.5 157.5,197.5C 144.5,197.5 131.5,197.5 118.5,197.5C 118.5,184.5 118.5,171.5 118.5,158.5 Z"/></g>
<g><path style="opacity:1" fill="#fdfdfd" d="M 78.5,158.5 C 91.5,158.5 104.5,158.5 117.5,158.5C 117.5,171.5 117.5,184.5 117.5,197.5C 104.5,197.5 91.5,197.5 78.5,197.5C 78.5,184.5 78.5,171.5 78.5,158.5 Z"/></g>
<g><path style="opacity:1" fill="#fdfdfd" d="M 38.5,158.5 C 51.5,158.5 64.5,158.5 77.5,158.5C 77.5,171.5 77.5,184.5 77.5,197.5C 64.5,197.5 51.5,197.5 38.5,197.5C 38.5,184.5 38.5,171.5 38.5,158.5 Z"/></g>
<g><path style="opacity:1" fill="#020202" d="M 477.5,147.5 C 477.833,147.5 478.167,147.5 478.5,147.5C 491.5,147.5 504.5,147.5 517.5,147.5C 517.833,147.5 518.167,147.5 518.5,147.5C 525.167,147.5 531.833,147.5 538.5,147.5C 538.5,150.833 538.5,154.167 538.5,157.5C 544.833,157.5 551.167,157.5 557.5,157.5C 557.833,157.5 558.167,157.5 558.5,157.5C 571.5,157.5 584.5,157.5 597.5,157.5C 597.833,157.5 598.167,157.5 598.5,157.5C 603.833,157.833 603.833,158.167 598.5,158.5C 598.167,158.5 597.833,158.5 597.5,158.5C 584.5,158.5 571.5,158.5 558.5,158.5C 558.167,158.5 557.833,158.5 557.5,158.5C 551.167,158.5 544.833,158.5 538.5,158.5C 538.5,171.5 538.5,184.5 538.5,197.5C 538.5,197.833 538.5,198.167 538.5,198.5C 538.666,208.506 538.5,218.506 538,228.5C 537.5,201.835 537.333,175.169 537.5,148.5C 511.167,148.5 484.833,148.5 458.5,148.5C 458.667,175.169 458.5,201.835 458,228.5C 457.832,218.483 457.332,208.483 456.5,198.5C 454.5,199.5 452.5,200.5 450.5,201.5C 449.494,201.062 449.494,200.396 450.5,199.5C 446.555,198.509 442.555,198.176 438.5,198.5C 438.167,198.5 437.833,198.5 437.5,198.5C 424.5,198.5 411.5,198.5 398.5,198.5C 398.167,198.5 397.833,198.5 397.5,198.5C 384.5,198.5 371.5,198.5 358.5,198.5C 358.167,198.5 357.833,198.5 357.5,198.5C 344.5,198.5 331.5,198.5 318.5,198.5C 318.5,211.5 318.5,224.5 318.5,237.5C 318.5,237.833 318.5,238.167 318.5,238.5C 318.5,248.5 318.5,258.5 318.5,268.5C 318.167,268.5 317.833,268.5 317.5,268.5C 304.5,268.5 291.5,268.5 278.5,268.5C 264.833,268.5 251.167,268.5 237.5,268.5C 230.833,268.5 224.167,268.5 217.5,268.5C 217.5,258.5 217.5,248.5 217.5,238.5C 217.5,238.167 217.5,237.833 217.5,237.5C 217.5,209.5 217.5,181.5 217.5,153.5C 217.833,153.5 218.167,153.5 218.5,153.5C 218.5,191.5 218.5,229.5 218.5,267.5C 251.5,267.5 284.5,267.5 317.5,267.5C 317.816,228.136 317.482,188.803 316.5,149.5C 317.167,150.167 317.833,150.833 318.5,151.5C 318.5,153.5 318.5,155.5 318.5,157.5C 318.5,157.833 318.5,158.167 318.5,158.5C 318.5,171.5 318.5,184.5 318.5,197.5C 331.5,197.5 344.5,197.5 357.5,197.5C 357.833,197.5 358.167,197.5 358.5,197.5C 371.5,197.5 384.5,197.5 397.5,197.5C 397.833,197.5 398.167,197.5 398.5,197.5C 411.5,197.5 424.5,197.5 437.5,197.5C 437.833,197.5 438.167,197.5 438.5,197.5C 442.555,197.824 446.555,197.491 450.5,196.5C 449.494,195.604 449.494,194.938 450.5,194.5C 452.5,195.5 454.5,196.5 456.5,197.5C 457.499,184.517 457.832,171.517 457.5,158.5C 457.5,158.167 457.5,157.833 457.5,157.5C 457.5,154.167 457.5,150.833 457.5,147.5C 464.167,147.5 470.833,147.5 477.5,147.5 Z"/></g>
<g><path style="opacity:1" fill="#fdfdfd" d="M 318.5,158.5 C 331.5,158.5 344.5,158.5 357.5,158.5C 357.5,171.5 357.5,184.5 357.5,197.5C 357.5,184.5 357.5,171.5 357.5,158.5C 344.5,158.5 331.5,158.5 318.5,158.5 Z"/></g>
<g><path style="opacity:1" fill="#fdfcfc" d="M 538.5,198.5 C 544.833,198.5 551.167,198.5 557.5,198.5C 557.5,211.5 557.5,224.5 557.5,237.5C 547.917,237.818 538.417,237.485 529,236.5C 528.5,237 528,237.5 527.5,238C 550.831,238.5 574.164,238.667 597.5,238.5C 597.833,245.167 598.167,245.167 598.5,238.5C 611.5,238.5 624.5,238.5 637.5,238.5C 637.5,242.167 637.5,245.833 637.5,249.5C 634.5,249.5 631.5,249.5 628.5,249.5C 627.227,248.582 627.227,248.916 628.5,250.5C 631.5,250.5 634.5,250.5 637.5,250.5C 637.5,259.5 637.5,268.5 637.5,277.5C 624.5,277.5 611.5,277.5 598.5,277.5C 598.167,249.5 597.833,249.5 597.5,277.5C 584.5,277.5 571.5,277.5 558.5,277.5C 558.5,268.5 558.5,259.5 558.5,250.5C 564.842,250.666 571.175,250.5 577.5,250C 557.26,249.827 537.094,249.327 517,248.5C 515.583,249.078 514.75,250.078 514.5,251.5C 508.869,256.63 503.369,261.964 498,267.5C 491.333,260.833 484.667,254.167 478,247.5C 477.5,257.494 477.334,267.494 477.5,277.5C 464.5,277.5 451.5,277.5 438.5,277.5C 438.5,264.5 438.5,251.5 438.5,238.5C 448.506,238.666 458.506,238.5 468.5,238C 468,237.5 467.5,237 467,236.5C 457.583,237.485 448.083,237.818 438.5,237.5C 438.5,224.5 438.5,211.5 438.5,198.5C 442.555,198.176 446.555,198.509 450.5,199.5C 449.494,200.396 449.494,201.062 450.5,201.5C 452.5,200.5 454.5,199.5 456.5,198.5C 457.332,208.483 457.832,218.483 458,228.5C 458.5,201.835 458.667,175.169 458.5,148.5C 484.833,148.5 511.167,148.5 537.5,148.5C 537.333,175.169 537.5,201.835 538,228.5C 538.5,218.506 538.666,208.506 538.5,198.5 Z"/></g>
<g><path style="opacity:1" fill="#fdfdfd" d="M 518.5,250.5 C 531.5,250.5 544.5,250.5 557.5,250.5C 557.5,259.5 557.5,268.5 557.5,277.5C 544.5,277.5 531.5,277.5 518.5,277.5C 518.5,268.5 518.5,259.5 518.5,250.5 Z"/></g>
<g><path style="opacity:1" fill="#4e291f" d="M 622.5,250.5 C 622.918,249.778 623.584,249.278 624.5,249C 622.068,247.913 622.402,247.413 625.5,247.5C 625.5,249.5 625.5,251.5 625.5,253.5C 624.167,253.5 622.833,253.5 621.5,253.5C 621.263,252.209 621.596,251.209 622.5,250.5 Z"/></g>
<g><path style="opacity:1" fill="#e5ead0" d="M 622.5,250.5 C 624.337,250.639 624.67,251.306 623.5,252.5C 622.702,252.043 622.369,251.376 622.5,250.5 Z"/></g>
<g><path style="opacity:1" fill="#6a2e5d" d="M 601.5,245.5 C 602.634,247.966 602.801,250.633 602,253.5C 601.798,251.744 601.298,250.078 600.5,248.5C 599.811,250.338 599.478,252.005 599.5,253.5C 598.534,251.604 598.201,249.604 598.5,247.5C 600.179,247.715 601.179,247.048 601.5,245.5 Z"/></g>
<g><path style="opacity:1" fill="#451a37" d="M 591.5,248.5 C 593.322,249.325 594.989,249.658 596.5,249.5C 594.704,250.141 593.204,251.141 592,252.5C 591.51,251.207 591.343,249.873 591.5,248.5 Z"/></g>
<g><path style="opacity:1" fill="#000000" d="M 558.5,250.5 C 558.167,250.5 557.833,250.5 557.5,250.5C 544.5,250.5 531.5,250.5 518.5,250.5C 517.041,250.433 515.708,250.766 514.5,251.5C 514.75,250.078 515.583,249.078 517,248.5C 537.094,249.327 557.26,249.827 577.5,250C 571.175,250.5 564.842,250.666 558.5,250.5 Z"/></g>
<g><path style="opacity:1" fill="#b8acad" d="M 608.5,246.5 C 609.601,245.402 610.934,245.235 612.5,246C 613.624,248.482 615.29,248.982 617.5,247.5C 620.167,249.5 620.167,251.5 617.5,253.5C 614.229,252.802 610.896,252.802 607.5,253.5C 607.338,251.473 607.505,249.473 608,247.5C 608.654,248.696 609.154,248.696 609.5,247.5C 609.376,246.893 609.043,246.56 608.5,246.5 Z"/></g>
<g><path style="opacity:1" fill="#1b4969" d="M 578.5,245.5 C 582.838,245.622 583.172,245.955 579.5,246.5C 579.5,248.5 579.5,250.5 579.5,252.5C 583.172,253.045 582.838,253.378 578.5,253.5C 578.5,250.833 578.5,248.167 578.5,245.5 Z"/></g>
<g><path style="opacity:1" fill="#323232" d="M 228.5,128.5 C 228.5,128.167 228.5,127.833 228.5,127.5C 255.169,127.333 281.835,127.5 308.5,128C 311.586,134.672 314.253,141.506 316.5,148.5C 316.5,148.833 316.5,149.167 316.5,149.5C 313.405,142.8 310.405,135.967 307.5,129C 281.169,128.5 254.835,128.333 228.5,128.5 Z"/></g>
<g><path style="opacity:1" fill="#575757" d="M 228.5,127.5 C 228.5,127.833 228.5,128.167 228.5,128.5C 225.167,136.833 221.833,145.167 218.5,153.5C 218.167,153.5 217.833,153.5 217.5,153.5C 220.414,144.396 224.081,135.729 228.5,127.5 Z"/></g>
<g><path style="opacity:1" fill="#fefefe" d="M 228.5,128.5 C 254.835,128.333 281.169,128.5 307.5,129C 310.405,135.967 313.405,142.8 316.5,149.5C 317.482,188.803 317.816,228.136 317.5,267.5C 284.5,267.5 251.5,267.5 218.5,267.5C 218.5,229.5 218.5,191.5 218.5,153.5C 221.833,145.167 225.167,136.833 228.5,128.5 Z"/></g>
<g><path style="opacity:1" fill="#fdfdfd" d="M 717.5,118.5 C 717.5,131.5 717.5,144.5 717.5,157.5C 704.5,157.5 691.5,157.5 678.5,157.5C 678.5,144.5 678.5,131.5 678.5,118.5C 691.5,118.5 704.5,118.5 717.5,118.5 Z"/></g>
<g><path style="opacity:1" fill="#fdfdfd" d="M 318.5,157.5 C 318.5,155.5 318.5,153.5 318.5,151.5C 318.5,140.5 318.5,129.5 318.5,118.5C 331.5,118.5 344.5,118.5 357.5,118.5C 357.5,131.5 357.5,144.5 357.5,157.5C 344.5,157.5 331.5,157.5 318.5,157.5 Z"/></g>
<g><path style="opacity:1" fill="#fdfdfd" d="M 118.5,118.5 C 131.5,118.5 144.5,118.5 157.5,118.5C 157.5,131.5 157.5,144.5 157.5,157.5C 144.5,157.5 131.5,157.5 118.5,157.5C 118.5,144.5 118.5,131.5 118.5,118.5 Z"/></g>
<g><path style="opacity:1" fill="#fdfdfd" d="M 78.5,118.5 C 91.5,118.5 104.5,118.5 117.5,118.5C 117.5,131.5 117.5,144.5 117.5,157.5C 104.5,157.5 91.5,157.5 78.5,157.5C 78.5,144.5 78.5,131.5 78.5,118.5 Z"/></g>
<g><path style="opacity:1" fill="#fdfdfd" d="M 38.5,118.5 C 51.5,118.5 64.5,118.5 77.5,118.5C 77.5,131.5 77.5,144.5 77.5,157.5C 64.5,157.5 51.5,157.5 38.5,157.5C 38.5,144.5 38.5,131.5 38.5,118.5 Z"/></g>
<g><path style="opacity:1" fill="#fdfdfd" d="M 717.5,78.5 C 717.5,91.5 717.5,104.5 717.5,117.5C 704.5,117.5 691.5,117.5 678.5,117.5C 678.5,104.5 678.5,91.5 678.5,78.5C 691.5,78.5 704.5,78.5 717.5,78.5 Z"/></g>
<g><path style="opacity:1" fill="#fdfdfd" d="M 118.5,78.5 C 131.5,78.5 144.5,78.5 157.5,78.5C 157.5,91.5 157.5,104.5 157.5,117.5C 144.5,117.5 131.5,117.5 118.5,117.5C 118.5,104.5 118.5,91.5 118.5,78.5 Z"/></g>
<g><path style="opacity:1" fill="#fdfdfd" d="M 78.5,78.5 C 91.5,78.5 104.5,78.5 117.5,78.5C 117.5,91.5 117.5,104.5 117.5,117.5C 104.5,117.5 91.5,117.5 78.5,117.5C 78.5,104.5 78.5,91.5 78.5,78.5 Z"/></g>
<g><path style="opacity:1" fill="#fdfdfd" d="M 38.5,78.5 C 51.5,78.5 64.5,78.5 77.5,78.5C 77.5,91.5 77.5,104.5 77.5,117.5C 64.5,117.5 51.5,117.5 38.5,117.5C 38.5,104.5 38.5,91.5 38.5,78.5 Z"/></g>
<g><path style="opacity:1" fill="#fdfdfd" d="M 717.5,38.5 C 717.5,51.5 717.5,64.5 717.5,77.5C 704.5,77.5 691.5,77.5 678.5,77.5C 678.5,64.5 678.5,51.5 678.5,38.5C 691.5,38.5 704.5,38.5 717.5,38.5 Z"/></g>
<g><path style="opacity:1" fill="#e6e6e6" d="M 357.5,-0.5 C 357.833,-0.5 358.167,-0.5 358.5,-0.5C 358.5,12.1667 358.5,24.8333 358.5,37.5C 371.5,37.5 384.5,37.5 397.5,37.5C 397.5,24.8333 397.5,12.1667 397.5,-0.5C 397.833,-0.5 398.167,-0.5 398.5,-0.5C 398.5,12.1667 398.5,24.8333 398.5,37.5C 411.5,37.5 424.5,37.5 437.5,37.5C 437.5,24.8333 437.5,12.1667 437.5,-0.5C 437.833,-0.5 438.167,-0.5 438.5,-0.5C 438.5,12.1667 438.5,24.8333 438.5,37.5C 451.5,37.5 464.5,37.5 477.5,37.5C 477.5,24.8333 477.5,12.1667 477.5,-0.5C 477.833,-0.5 478.167,-0.5 478.5,-0.5C 478.5,12.1667 478.5,24.8333 478.5,37.5C 491.5,37.5 504.5,37.5 517.5,37.5C 517.5,24.8333 517.5,12.1667 517.5,-0.5C 517.833,-0.5 518.167,-0.5 518.5,-0.5C 518.5,12.1667 518.5,24.8333 518.5,37.5C 531.5,37.5 544.5,37.5 557.5,37.5C 557.5,24.8333 557.5,12.1667 557.5,-0.5C 557.833,-0.5 558.167,-0.5 558.5,-0.5C 558.5,12.1667 558.5,24.8333 558.5,37.5C 571.5,37.5 584.5,37.5 597.5,37.5C 597.5,24.8333 597.5,12.1667 597.5,-0.5C 597.833,-0.5 598.167,-0.5 598.5,-0.5C 598.5,12.1667 598.5,24.8333 598.5,37.5C 611.5,37.5 624.5,37.5 637.5,37.5C 637.5,24.8333 637.5,12.1667 637.5,-0.5C 637.833,-0.5 638.167,-0.5 638.5,-0.5C 638.5,12.1667 638.5,24.8333 638.5,37.5C 651.5,37.5 664.5,37.5 677.5,37.5C 677.5,24.8333 677.5,12.1667 677.5,-0.5C 677.833,-0.5 678.167,-0.5 678.5,-0.5C 678.5,12.1667 678.5,24.8333 678.5,37.5C 691.5,37.5 704.5,37.5 717.5,37.5C 717.5,37.8333 717.5,38.1667 717.5,38.5C 704.5,38.5 691.5,38.5 678.5,38.5C 678.5,51.5 678.5,64.5 678.5,77.5C 691.5,77.5 704.5,77.5 717.5,77.5C 717.5,77.8333 717.5,78.1667 717.5,78.5C 704.5,78.5 691.5,78.5 678.5,78.5C 678.5,91.5 678.5,104.5 678.5,117.5C 691.5,117.5 704.5,117.5 717.5,117.5C 717.5,117.833 717.5,118.167 717.5,118.5C 704.5,118.5 691.5,118.5 678.5,118.5C 678.5,131.5 678.5,144.5 678.5,157.5C 691.5,157.5 704.5,157.5 717.5,157.5C 717.5,157.833 717.5,158.167 717.5,158.5C 704.5,158.5 691.5,158.5 678.5,158.5C 678.5,171.5 678.5,184.5 678.5,197.5C 678.5,197.833 678.5,198.167 678.5,198.5C 678.5,211.5 678.5,224.5 678.5,237.5C 691.5,237.5 704.5,237.5 717.5,237.5C 717.5,237.833 717.5,238.167 717.5,238.5C 704.5,238.5 691.5,238.5 678.5,238.5C 678.5,251.5 678.5,264.5 678.5,277.5C 678.5,277.833 678.5,278.167 678.5,278.5C 678.5,291.5 678.5,304.5 678.5,317.5C 691.5,317.5 704.5,317.5 717.5,317.5C 717.5,317.833 717.5,318.167 717.5,318.5C 704.5,318.5 691.5,318.5 678.5,318.5C 678.167,318.5 677.833,318.5 677.5,318.5C 664.5,318.5 651.5,318.5 638.5,318.5C 638.5,331.5 638.5,344.5 638.5,357.5C 651.5,357.5 664.5,357.5 677.5,357.5C 677.5,357.833 677.5,358.167 677.5,358.5C 664.5,358.5 651.5,358.5 638.5,358.5C 638.167,358.5 637.833,358.5 637.5,358.5C 624.5,358.5 611.5,358.5 598.5,358.5C 598.5,358.167 598.5,357.833 598.5,357.5C 611.5,357.5 624.5,357.5 637.5,357.5C 637.5,344.5 637.5,331.5 637.5,318.5C 624.5,318.5 611.5,318.5 598.5,318.5C 598.5,318.167 598.5,317.833 598.5,317.5C 611.5,317.5 624.5,317.5 637.5,317.5C 637.5,304.5 637.5,291.5 637.5,278.5C 624.5,278.5 611.5,278.5 598.5,278.5C 598.5,278.167 598.5,277.833 598.5,277.5C 611.5,277.5 624.5,277.5 637.5,277.5C 637.5,268.5 637.5,259.5 637.5,250.5C 637.833,250.5 638.167,250.5 638.5,250.5C 638.5,259.5 638.5,268.5 638.5,277.5C 651.5,277.5 664.5,277.5 677.5,277.5C 677.5,264.5 677.5,251.5 677.5,238.5C 664.5,238.5 651.5,238.5 638.5,238.5C 638.5,242.167 638.5,245.833 638.5,249.5C 638.167,249.5 637.833,249.5 637.5,249.5C 637.5,245.833 637.5,242.167 637.5,238.5C 624.5,238.5 611.5,238.5 598.5,238.5C 598.167,245.167 597.833,245.167 597.5,238.5C 574.164,238.667 550.831,238.5 527.5,238C 528,237.5 528.5,237 529,236.5C 538.417,237.485 547.917,237.818 557.5,237.5C 557.5,224.5 557.5,211.5 557.5,198.5C 551.167,198.5 544.833,198.5 538.5,198.5C 538.5,198.167 538.5,197.833 538.5,197.5C 544.833,197.5 551.167,197.5 557.5,197.5C 557.5,184.5 557.5,171.5 557.5,158.5C 557.833,158.5 558.167,158.5 558.5,158.5C 558.5,171.5 558.5,184.5 558.5,197.5C 571.5,197.5 584.5,197.5 597.5,197.5C 597.5,184.5 597.5,171.5 597.5,158.5C 597.833,158.5 598.167,158.5 598.5,158.5C 598.5,171.5 598.5,184.5 598.5,197.5C 611.5,197.5 624.5,197.5 637.5,197.5C 637.5,184.5 637.5,171.5 637.5,158.5C 637.833,158.5 638.167,158.5 638.5,158.5C 638.5,171.5 638.5,184.5 638.5,197.5C 651.5,197.5 664.5,197.5 677.5,197.5C 677.5,184.5 677.5,171.5 677.5,158.5C 670.833,158.5 664.167,158.5 657.5,158.5C 657.5,158.167 657.5,157.833 657.5,157.5C 664.167,157.5 670.833,157.5 677.5,157.5C 677.5,144.5 677.5,131.5 677.5,118.5C 664.5,118.5 651.5,118.5 638.5,118.5C 638.5,131.5 638.5,144.5 638.5,157.5C 638.167,157.5 637.833,157.5 637.5,157.5C 637.5,144.5 637.5,131.5 637.5,118.5C 624.5,118.5 611.5,118.5 598.5,118.5C 598.5,131.5 598.5,144.5 598.5,157.5C 598.167,157.5 597.833,157.5 597.5,157.5C 597.5,144.5 597.5,131.5 597.5,118.5C 584.5,118.5 571.5,118.5 558.5,118.5C 558.5,131.5 558.5,144.5 558.5,157.5C 558.167,157.5 557.833,157.5 557.5,157.5C 557.5,144.5 557.5,131.5 557.5,118.5C 544.5,118.5 531.5,118.5 518.5,118.5C 518.5,128.167 518.5,137.833 518.5,147.5C 518.167,147.5 517.833,147.5 517.5,147.5C 517.5,137.833 517.5,128.167 517.5,118.5C 504.5,118.5 491.5,118.5 478.5,118.5C 478.5,128.167 478.5,137.833 478.5,147.5C 478.167,147.5 477.833,147.5 477.5,147.5C 477.5,137.833 477.5,128.167 477.5,118.5C 464.5,118.5 451.5,118.5 438.5,118.5C 438.5,131.5 438.5,144.5 438.5,157.5C 444.833,157.5 451.167,157.5 457.5,157.5C 457.5,157.833 457.5,158.167 457.5,158.5C 451.167,158.5 444.833,158.5 438.5,158.5C 438.5,171.5 438.5,184.5 438.5,197.5C 438.167,197.5 437.833,197.5 437.5,197.5C 437.5,184.5 437.5,171.5 437.5,158.5C 424.5,158.5 411.5,158.5 398.5,158.5C 398.5,171.5 398.5,184.5 398.5,197.5C 398.167,197.5 397.833,197.5 397.5,197.5C 397.5,184.5 397.5,171.5 397.5,158.5C 384.5,158.5 371.5,158.5 358.5,158.5C 358.5,171.5 358.5,184.5 358.5,197.5C 358.167,197.5 357.833,197.5 357.5,197.5C 357.5,184.5 357.5,171.5 357.5,158.5C 344.5,158.5 331.5,158.5 318.5,158.5C 318.5,158.167 318.5,157.833 318.5,157.5C 331.5,157.5 344.5,157.5 357.5,157.5C 357.5,144.5 357.5,131.5 357.5,118.5C 344.5,118.5 331.5,118.5 318.5,118.5C 318.5,129.5 318.5,140.5 318.5,151.5C 317.833,150.833 317.167,150.167 316.5,149.5C 316.5,149.167 316.5,148.833 316.5,148.5C 317.494,138.347 317.828,128.014 317.5,117.5C 330.833,117.5 344.167,117.5 357.5,117.5C 357.5,78.1667 357.5,38.8333 357.5,-0.5 Z"/></g>
<g><path style="opacity:1" fill="#fdfdfd" d="M 638.5,278.5 C 651.5,278.5 664.5,278.5 677.5,278.5C 677.5,291.5 677.5,304.5 677.5,317.5C 664.5,317.5 651.5,317.5 638.5,317.5C 638.5,304.5 638.5,291.5 638.5,278.5 Z"/></g>
<g><path style="opacity:1" fill="#fdfdfd" d="M 638.5,198.5 C 651.5,198.5 664.5,198.5 677.5,198.5C 677.5,211.5 677.5,224.5 677.5,237.5C 664.5,237.5 651.5,237.5 638.5,237.5C 638.5,224.5 638.5,211.5 638.5,198.5 Z"/></g>
<g><path style="opacity:1" fill="#fdfdfd" d="M 598.5,198.5 C 611.5,198.5 624.5,198.5 637.5,198.5C 637.5,211.5 637.5,224.5 637.5,237.5C 624.5,237.5 611.5,237.5 598.5,237.5C 598.5,224.5 598.5,211.5 598.5,198.5 Z"/></g>
<g><path style="opacity:1" fill="#fdfdfd" d="M 558.5,198.5 C 571.5,198.5 584.5,198.5 597.5,198.5C 597.5,211.5 597.5,224.5 597.5,237.5C 584.5,237.5 571.5,237.5 558.5,237.5C 558.5,224.5 558.5,211.5 558.5,198.5 Z"/></g>
<g><path style="opacity:1" fill="#212121" d="M 503.5,157.5 C 507.09,157.543 509.757,159.043 511.5,162C 509.833,162.667 508.167,162.667 506.5,162C 505.167,161.333 505.167,160.667 506.5,160C 505.058,159.623 504.058,158.79 503.5,157.5 Z"/></g>
<g><path style="opacity:1" fill="#fdfdfd" d="M 638.5,158.5 C 642.555,158.176 646.555,158.509 650.5,159.5C 649.494,160.396 649.494,161.062 650.5,161.5C 652.739,160.212 655.072,159.212 657.5,158.5C 664.167,158.5 670.833,158.5 677.5,158.5C 677.5,171.5 677.5,184.5 677.5,197.5C 664.5,197.5 651.5,197.5 638.5,197.5C 638.5,184.5 638.5,171.5 638.5,158.5 Z"/></g>
<g><path style="opacity:1" fill="#fdfdfd" d="M 558.5,158.5 C 571.5,158.5 584.5,158.5 597.5,158.5C 597.5,171.5 597.5,184.5 597.5,197.5C 584.5,197.5 571.5,197.5 558.5,197.5C 558.5,184.5 558.5,171.5 558.5,158.5 Z"/></g>
<g><path style="opacity:1" fill="#fdfdfd" d="M 557.5,158.5 C 557.5,171.5 557.5,184.5 557.5,197.5C 551.167,197.5 544.833,197.5 538.5,197.5C 538.5,184.5 538.5,171.5 538.5,158.5C 544.833,158.5 551.167,158.5 557.5,158.5 Z"/></g>
<g><path style="opacity:1" fill="#fcfcfc" d="M 457.5,158.5 C 457.832,171.517 457.499,184.517 456.5,197.5C 454.5,196.5 452.5,195.5 450.5,194.5C 449.494,194.938 449.494,195.604 450.5,196.5C 446.555,197.491 442.555,197.824 438.5,197.5C 438.5,184.5 438.5,171.5 438.5,158.5C 444.833,158.5 451.167,158.5 457.5,158.5 Z"/></g>
<g><path style="opacity:1" fill="#fdfdfd" d="M 437.5,197.5 C 424.5,197.5 411.5,197.5 398.5,197.5C 398.5,184.5 398.5,171.5 398.5,158.5C 411.5,158.5 424.5,158.5 437.5,158.5C 437.5,171.5 437.5,184.5 437.5,197.5 Z"/></g>
<g><path style="opacity:1" fill="#fdfdfd" d="M 397.5,197.5 C 384.5,197.5 371.5,197.5 358.5,197.5C 358.5,184.5 358.5,171.5 358.5,158.5C 371.5,158.5 384.5,158.5 397.5,158.5C 397.5,171.5 397.5,184.5 397.5,197.5 Z"/></g>
<g><path style="opacity:1" fill="#060606" d="M 657.5,157.5 C 657.5,157.833 657.5,158.167 657.5,158.5C 655.072,159.212 652.739,160.212 650.5,161.5C 649.494,161.062 649.494,160.396 650.5,159.5C 646.555,158.509 642.555,158.176 638.5,158.5C 638.167,158.5 637.833,158.5 637.5,158.5C 629.5,158.167 629.5,157.833 637.5,157.5C 637.833,157.5 638.167,157.5 638.5,157.5C 642.555,157.824 646.555,157.491 650.5,156.5C 649.494,155.604 649.494,154.938 650.5,154.5C 652.739,155.788 655.072,156.788 657.5,157.5 Z"/></g>
<g><path style="opacity:1" fill="#111111" d="M 503.5,157.5 C 496.881,156.743 490.215,156.243 483.5,156C 493.685,156.109 503.685,155.276 513.5,153.5C 515.167,154.333 516.833,155.167 518.5,156C 516.833,156.833 515.167,157.667 513.5,158.5C 510.242,156.32 506.909,155.986 503.5,157.5 Z"/></g>
<g><path style="opacity:1" fill="#fdfdfd" d="M 657.5,157.5 C 655.072,156.788 652.739,155.788 650.5,154.5C 649.494,154.938 649.494,155.604 650.5,156.5C 646.555,157.491 642.555,157.824 638.5,157.5C 638.5,144.5 638.5,131.5 638.5,118.5C 651.5,118.5 664.5,118.5 677.5,118.5C 677.5,131.5 677.5,144.5 677.5,157.5C 670.833,157.5 664.167,157.5 657.5,157.5 Z"/></g>
<g><path style="opacity:1" fill="#fbfafa" d="M 637.5,157.5 C 629.5,157.833 629.5,158.167 637.5,158.5C 637.5,171.5 637.5,184.5 637.5,197.5C 624.5,197.5 611.5,197.5 598.5,197.5C 598.5,184.5 598.5,171.5 598.5,158.5C 603.833,158.167 603.833,157.833 598.5,157.5C 598.5,144.5 598.5,131.5 598.5,118.5C 611.5,118.5 624.5,118.5 637.5,118.5C 637.5,131.5 637.5,144.5 637.5,157.5 Z"/></g>
<g><path style="opacity:1" fill="#341b27" d="M 611.5,159.5 C 612.087,160.767 612.087,161.767 611.5,162.5C 610.224,161.386 610.224,160.386 611.5,159.5 Z"/></g>
<g><path style="opacity:1" fill="#8f8e99" d="M 623.5,156.5 C 628.197,157.874 628.531,159.874 624.5,162.5C 622.261,160.867 621.928,158.867 623.5,156.5 Z"/></g>
<g><path style="opacity:1" fill="#29437a" d="M 616.5,157.5 C 617.103,159.19 618.103,160.69 619.5,162C 618.333,162.5 617.5,163.333 617,164.5C 616.503,162.19 616.337,159.857 616.5,157.5 Z"/></g>
<g><path style="opacity:1" fill="#44163d" d="M 611.5,159.5 C 611.918,158.778 612.584,158.278 613.5,158C 611.068,156.913 611.402,156.413 614.5,156.5C 614.66,158.199 614.494,159.866 614,161.5C 613.583,160.244 612.75,159.577 611.5,159.5 Z"/></g>
<g><path style="opacity:1" fill="#fdfdfd" d="M 597.5,157.5 C 584.5,157.5 571.5,157.5 558.5,157.5C 558.5,144.5 558.5,131.5 558.5,118.5C 571.5,118.5 584.5,118.5 597.5,118.5C 597.5,131.5 597.5,144.5 597.5,157.5 Z"/></g>
<g><path style="opacity:1" fill="#fdfdfd" d="M 557.5,157.5 C 551.167,157.5 544.833,157.5 538.5,157.5C 538.5,154.167 538.5,150.833 538.5,147.5C 531.833,147.5 525.167,147.5 518.5,147.5C 518.5,137.833 518.5,128.167 518.5,118.5C 531.5,118.5 544.5,118.5 557.5,118.5C 557.5,131.5 557.5,144.5 557.5,157.5 Z"/></g>
<g><path style="opacity:1" fill="#fdfdfd" d="M 517.5,147.5 C 504.5,147.5 491.5,147.5 478.5,147.5C 478.5,137.833 478.5,128.167 478.5,118.5C 491.5,118.5 504.5,118.5 517.5,118.5C 517.5,128.167 517.5,137.833 517.5,147.5 Z"/></g>
<g><path style="opacity:1" fill="#fdfdfd" d="M 477.5,147.5 C 470.833,147.5 464.167,147.5 457.5,147.5C 457.5,150.833 457.5,154.167 457.5,157.5C 451.167,157.5 444.833,157.5 438.5,157.5C 438.5,144.5 438.5,131.5 438.5,118.5C 451.5,118.5 464.5,118.5 477.5,118.5C 477.5,128.167 477.5,137.833 477.5,147.5 Z"/></g>
<g><path style="opacity:1" fill="#fdfdfd" d="M 398.5,118.5 C 411.5,118.5 424.5,118.5 437.5,118.5C 437.5,131.5 437.5,144.5 437.5,157.5C 424.5,157.5 411.5,157.5 398.5,157.5C 398.5,144.5 398.5,131.5 398.5,118.5 Z"/></g>
<g><path style="opacity:1" fill="#fdfdfd" d="M 358.5,118.5 C 371.5,118.5 384.5,118.5 397.5,118.5C 397.5,131.5 397.5,144.5 397.5,157.5C 384.5,157.5 371.5,157.5 358.5,157.5C 358.5,144.5 358.5,131.5 358.5,118.5 Z"/></g>
<g><path style="opacity:1" fill="#fdfdfd" d="M 638.5,78.5 C 651.5,78.5 664.5,78.5 677.5,78.5C 677.5,91.5 677.5,104.5 677.5,117.5C 664.5,117.5 651.5,117.5 638.5,117.5C 638.5,104.5 638.5,91.5 638.5,78.5 Z"/></g>
<g><path style="opacity:1" fill="#fdfdfd" d="M 598.5,78.5 C 611.5,78.5 624.5,78.5 637.5,78.5C 637.5,91.5 637.5,104.5 637.5,117.5C 624.5,117.5 611.5,117.5 598.5,117.5C 598.5,104.5 598.5,91.5 598.5,78.5 Z"/></g>
<g><path style="opacity:1" fill="#fdfdfd" d="M 558.5,78.5 C 571.5,78.5 584.5,78.5 597.5,78.5C 597.5,91.5 597.5,104.5 597.5,117.5C 584.5,117.5 571.5,117.5 558.5,117.5C 558.5,104.5 558.5,91.5 558.5,78.5 Z"/></g>
<g><path style="opacity:1" fill="#fdfdfd" d="M 518.5,78.5 C 531.5,78.5 544.5,78.5 557.5,78.5C 557.5,91.5 557.5,104.5 557.5,117.5C 544.5,117.5 531.5,117.5 518.5,117.5C 518.5,104.5 518.5,91.5 518.5,78.5 Z"/></g>
<g><path style="opacity:1" fill="#fdfdfd" d="M 478.5,78.5 C 491.5,78.5 504.5,78.5 517.5,78.5C 517.5,91.5 517.5,104.5 517.5,117.5C 504.5,117.5 491.5,117.5 478.5,117.5C 478.5,104.5 478.5,91.5 478.5,78.5 Z"/></g>
<g><path style="opacity:1" fill="#fdfdfd" d="M 438.5,78.5 C 451.5,78.5 464.5,78.5 477.5,78.5C 477.5,91.5 477.5,104.5 477.5,117.5C 464.5,117.5 451.5,117.5 438.5,117.5C 438.5,104.5 438.5,91.5 438.5,78.5 Z"/></g>
<g><path style="opacity:1" fill="#fdfdfd" d="M 398.5,78.5 C 411.5,78.5 424.5,78.5 437.5,78.5C 437.5,91.5 437.5,104.5 437.5,117.5C 424.5,117.5 411.5,117.5 398.5,117.5C 398.5,104.5 398.5,91.5 398.5,78.5 Z"/></g>
<g><path style="opacity:1" fill="#fdfdfd" d="M 358.5,78.5 C 371.5,78.5 384.5,78.5 397.5,78.5C 397.5,91.5 397.5,104.5 397.5,117.5C 384.5,117.5 371.5,117.5 358.5,117.5C 358.5,104.5 358.5,91.5 358.5,78.5 Z"/></g>
<g><path style="opacity:1" fill="#fdfdfd" d="M 638.5,38.5 C 651.5,38.5 664.5,38.5 677.5,38.5C 677.5,51.5 677.5,64.5 677.5,77.5C 664.5,77.5 651.5,77.5 638.5,77.5C 638.5,64.5 638.5,51.5 638.5,38.5 Z"/></g>
<g><path style="opacity:1" fill="#fdfdfd" d="M 598.5,38.5 C 611.5,38.5 624.5,38.5 637.5,38.5C 637.5,51.5 637.5,64.5 637.5,77.5C 624.5,77.5 611.5,77.5 598.5,77.5C 598.5,64.5 598.5,51.5 598.5,38.5 Z"/></g>
<g><path style="opacity:1" fill="#fdfdfd" d="M 558.5,38.5 C 571.5,38.5 584.5,38.5 597.5,38.5C 597.5,51.5 597.5,64.5 597.5,77.5C 584.5,77.5 571.5,77.5 558.5,77.5C 558.5,64.5 558.5,51.5 558.5,38.5 Z"/></g>
<g><path style="opacity:1" fill="#fdfdfd" d="M 518.5,38.5 C 531.5,38.5 544.5,38.5 557.5,38.5C 557.5,51.5 557.5,64.5 557.5,77.5C 544.5,77.5 531.5,77.5 518.5,77.5C 518.5,64.5 518.5,51.5 518.5,38.5 Z"/></g>
<g><path style="opacity:1" fill="#fdfdfd" d="M 478.5,38.5 C 491.5,38.5 504.5,38.5 517.5,38.5C 517.5,51.5 517.5,64.5 517.5,77.5C 504.5,77.5 491.5,77.5 478.5,77.5C 478.5,64.5 478.5,51.5 478.5,38.5 Z"/></g>
<g><path style="opacity:1" fill="#fdfdfd" d="M 438.5,38.5 C 451.5,38.5 464.5,38.5 477.5,38.5C 477.5,51.5 477.5,64.5 477.5,77.5C 464.5,77.5 451.5,77.5 438.5,77.5C 438.5,64.5 438.5,51.5 438.5,38.5 Z"/></g>
<g><path style="opacity:1" fill="#fdfdfd" d="M 398.5,38.5 C 411.5,38.5 424.5,38.5 437.5,38.5C 437.5,51.5 437.5,64.5 437.5,77.5C 424.5,77.5 411.5,77.5 398.5,77.5C 398.5,64.5 398.5,51.5 398.5,38.5 Z"/></g>
<g><path style="opacity:1" fill="#fdfdfd" d="M 358.5,38.5 C 371.5,38.5 384.5,38.5 397.5,38.5C 397.5,51.5 397.5,64.5 397.5,77.5C 384.5,77.5 371.5,77.5 358.5,77.5C 358.5,64.5 358.5,51.5 358.5,38.5 Z"/></g>
<g><path style="opacity:1" fill="#fbfbfb" d="M 158.5,-0.5 C 224.833,-0.5 291.167,-0.5 357.5,-0.5C 357.5,38.8333 357.5,78.1667 357.5,117.5C 344.167,117.5 330.833,117.5 317.5,117.5C 317.828,128.014 317.494,138.347 316.5,148.5C 314.253,141.506 311.586,134.672 308.5,128C 281.835,127.5 255.169,127.333 228.5,127.5C 224.081,135.729 220.414,144.396 217.5,153.5C 217.5,181.5 217.5,209.5 217.5,237.5C 211.167,237.5 204.833,237.5 198.5,237.5C 198.5,227.833 198.5,218.167 198.5,208.5C 199.376,208.369 200.043,208.702 200.5,209.5C 199.494,210.396 199.494,211.062 200.5,211.5C 202.833,210.333 205.167,209.167 207.5,208C 205.167,206.833 202.833,205.667 200.5,204.5C 199.494,204.938 199.494,205.604 200.5,206.5C 186.516,207.499 172.516,207.833 158.5,207.5C 158.5,164.5 158.5,121.5 158.5,78.5C 210.5,78.1667 210.5,77.8333 158.5,77.5C 158.5,64.5 158.5,51.5 158.5,38.5C 210.5,38.1667 210.5,37.8333 158.5,37.5C 158.5,24.8333 158.5,12.1667 158.5,-0.5 Z"/></g>
<g><path style="opacity:1" fill="#fdfdfd" d="M 118.5,38.5 C 131.5,38.5 144.5,38.5 157.5,38.5C 157.5,51.5 157.5,64.5 157.5,77.5C 144.5,77.5 131.5,77.5 118.5,77.5C 118.5,64.5 118.5,51.5 118.5,38.5 Z"/></g>
<g><path style="opacity:1" fill="#fdfdfd" d="M 78.5,38.5 C 91.5,38.5 104.5,38.5 117.5,38.5C 117.5,51.5 117.5,64.5 117.5,77.5C 104.5,77.5 91.5,77.5 78.5,77.5C 78.5,64.5 78.5,51.5 78.5,38.5 Z"/></g>
<g><path style="opacity:1" fill="#fdfdfd" d="M 38.5,38.5 C 51.5,38.5 64.5,38.5 77.5,38.5C 77.5,51.5 77.5,64.5 77.5,77.5C 64.5,77.5 51.5,77.5 38.5,77.5C 38.5,64.5 38.5,51.5 38.5,38.5 Z"/></g>
<g><path style="opacity:1" fill="#fdfdfd" d="M 678.5,-0.5 C 691.5,-0.5 704.5,-0.5 717.5,-0.5C 717.5,12.1667 717.5,24.8333 717.5,37.5C 704.5,37.5 691.5,37.5 678.5,37.5C 678.5,24.8333 678.5,12.1667 678.5,-0.5 Z"/></g>
<g><path style="opacity:1" fill="#fdfdfd" d="M 638.5,-0.5 C 651.5,-0.5 664.5,-0.5 677.5,-0.5C 677.5,12.1667 677.5,24.8333 677.5,37.5C 664.5,37.5 651.5,37.5 638.5,37.5C 638.5,24.8333 638.5,12.1667 638.5,-0.5 Z"/></g>
<g><path style="opacity:1" fill="#fdfdfd" d="M 598.5,-0.5 C 611.5,-0.5 624.5,-0.5 637.5,-0.5C 637.5,12.1667 637.5,24.8333 637.5,37.5C 624.5,37.5 611.5,37.5 598.5,37.5C 598.5,24.8333 598.5,12.1667 598.5,-0.5 Z"/></g>
<g><path style="opacity:1" fill="#fdfdfd" d="M 558.5,-0.5 C 571.5,-0.5 584.5,-0.5 597.5,-0.5C 597.5,12.1667 597.5,24.8333 597.5,37.5C 584.5,37.5 571.5,37.5 558.5,37.5C 558.5,24.8333 558.5,12.1667 558.5,-0.5 Z"/></g>
<g><path style="opacity:1" fill="#fdfdfd" d="M 518.5,-0.5 C 531.5,-0.5 544.5,-0.5 557.5,-0.5C 557.5,12.1667 557.5,24.8333 557.5,37.5C 544.5,37.5 531.5,37.5 518.5,37.5C 518.5,24.8333 518.5,12.1667 518.5,-0.5 Z"/></g>
<g><path style="opacity:1" fill="#fdfdfd" d="M 478.5,-0.5 C 491.5,-0.5 504.5,-0.5 517.5,-0.5C 517.5,12.1667 517.5,24.8333 517.5,37.5C 504.5,37.5 491.5,37.5 478.5,37.5C 478.5,24.8333 478.5,12.1667 478.5,-0.5 Z"/></g>
<g><path style="opacity:1" fill="#fdfdfd" d="M 438.5,-0.5 C 451.5,-0.5 464.5,-0.5 477.5,-0.5C 477.5,12.1667 477.5,24.8333 477.5,37.5C 464.5,37.5 451.5,37.5 438.5,37.5C 438.5,24.8333 438.5,12.1667 438.5,-0.5 Z"/></g>
<g><path style="opacity:1" fill="#fdfdfd" d="M 398.5,-0.5 C 411.5,-0.5 424.5,-0.5 437.5,-0.5C 437.5,12.1667 437.5,24.8333 437.5,37.5C 424.5,37.5 411.5,37.5 398.5,37.5C 398.5,24.8333 398.5,12.1667 398.5,-0.5 Z"/></g>
<g><path style="opacity:1" fill="#fdfdfd" d="M 358.5,-0.5 C 371.5,-0.5 384.5,-0.5 397.5,-0.5C 397.5,12.1667 397.5,24.8333 397.5,37.5C 384.5,37.5 371.5,37.5 358.5,37.5C 358.5,24.8333 358.5,12.1667 358.5,-0.5 Z"/></g>
<g><path style="opacity:1" fill="#fdfdfd" d="M 118.5,-0.5 C 131.5,-0.5 144.5,-0.5 157.5,-0.5C 157.5,12.1667 157.5,24.8333 157.5,37.5C 144.5,37.5 131.5,37.5 118.5,37.5C 118.5,24.8333 118.5,12.1667 118.5,-0.5 Z"/></g>
<g><path style="opacity:1" fill="#fdfdfd" d="M 78.5,-0.5 C 91.5,-0.5 104.5,-0.5 117.5,-0.5C 117.5,12.1667 117.5,24.8333 117.5,37.5C 104.5,37.5 91.5,37.5 78.5,37.5C 78.5,24.8333 78.5,12.1667 78.5,-0.5 Z"/></g>
<g><path style="opacity:1" fill="#fdfdfd" d="M 38.5,-0.5 C 51.5,-0.5 64.5,-0.5 77.5,-0.5C 77.5,12.1667 77.5,24.8333 77.5,37.5C 64.5,37.5 51.5,37.5 38.5,37.5C 38.5,24.8333 38.5,12.1667 38.5,-0.5 Z"/></g>
<g><path style="opacity:1" fill="#fdfdfd" d="M 558.5,318.5 C 571.5,318.5 584.5,318.5 597.5,318.5C 597.5,331.5 597.5,344.5 597.5,357.5C 584.5,357.5 571.5,357.5 558.5,357.5C 558.5,344.5 558.5,331.5 558.5,318.5 Z"/></g>
<g><path style="opacity:1" fill="#fdfdfd" d="M 598.5,318.5 C 611.5,318.5 624.5,318.5 637.5,318.5C 637.5,331.5 637.5,344.5 637.5,357.5C 624.5,357.5 611.5,357.5 598.5,357.5C 598.5,344.5 598.5,331.5 598.5,318.5 Z"/></g>
<g><path style="opacity:1" fill="#fdfdfd" d="M 677.5,318.5 C 677.5,331.5 677.5,344.5 677.5,357.5C 664.5,357.5 651.5,357.5 638.5,357.5C 638.5,344.5 638.5,331.5 638.5,318.5C 651.5,318.5 664.5,318.5 677.5,318.5 Z"/></g>
<g><path style="opacity:1" fill="#fdfdfd" d="M 678.5,318.5 C 691.5,318.5 704.5,318.5 717.5,318.5C 717.5,331.5 717.5,344.5 717.5,357.5C 704.5,357.5 691.5,357.5 678.5,357.5C 678.5,344.5 678.5,331.5 678.5,318.5 Z"/></g>
<g><path style="opacity:1" fill="#fdfdfd" d="M -0.5,358.5 C 12.1667,358.5 24.8333,358.5 37.5,358.5C 37.5,371.5 37.5,384.5 37.5,397.5C 24.8333,397.5 12.1667,397.5 -0.5,397.5C -0.5,384.5 -0.5,371.5 -0.5,358.5 Z"/></g>
<g><path style="opacity:1" fill="#fdfdfd" d="M 38.5,358.5 C 51.5,358.5 64.5,358.5 77.5,358.5C 77.5,371.5 77.5,384.5 77.5,397.5C 64.5,397.5 51.5,397.5 38.5,397.5C 38.5,384.5 38.5,371.5 38.5,358.5 Z"/></g>
<g><path style="opacity:1" fill="#fdfdfd" d="M 78.5,358.5 C 91.5,358.5 104.5,358.5 117.5,358.5C 117.5,371.5 117.5,384.5 117.5,397.5C 104.5,397.5 91.5,397.5 78.5,397.5C 78.5,384.5 78.5,371.5 78.5,358.5 Z"/></g>
<g><path style="opacity:1" fill="#fdfdfd" d="M 118.5,358.5 C 131.5,358.5 144.5,358.5 157.5,358.5C 157.5,371.5 157.5,384.5 157.5,397.5C 144.5,397.5 131.5,397.5 118.5,397.5C 118.5,384.5 118.5,371.5 118.5,358.5 Z"/></g>
<g><path style="opacity:1" fill="#fdfdfd" d="M 158.5,358.5 C 171.5,358.5 184.5,358.5 197.5,358.5C 197.5,371.5 197.5,384.5 197.5,397.5C 184.5,397.5 171.5,397.5 158.5,397.5C 158.5,384.5 158.5,371.5 158.5,358.5 Z"/></g>
<g><path style="opacity:1" fill="#fdfdfd" d="M 198.5,358.5 C 211.5,358.5 224.5,358.5 237.5,358.5C 237.5,371.5 237.5,384.5 237.5,397.5C 224.5,397.5 211.5,397.5 198.5,397.5C 198.5,384.5 198.5,371.5 198.5,358.5 Z"/></g>
<g><path style="opacity:1" fill="#fdfdfd" d="M 238.5,358.5 C 251.5,358.5 264.5,358.5 277.5,358.5C 277.5,371.5 277.5,384.5 277.5,397.5C 264.5,397.5 251.5,397.5 238.5,397.5C 238.5,384.5 238.5,371.5 238.5,358.5 Z"/></g>
<g><path style="opacity:1" fill="#fdfdfd" d="M 278.5,358.5 C 291.5,358.5 304.5,358.5 317.5,358.5C 317.5,371.5 317.5,384.5 317.5,397.5C 304.5,397.5 291.5,397.5 278.5,397.5C 278.5,384.5 278.5,371.5 278.5,358.5 Z"/></g>
<g><path style="opacity:1" fill="#fdfdfd" d="M 318.5,358.5 C 331.5,358.5 344.5,358.5 357.5,358.5C 357.5,371.5 357.5,384.5 357.5,397.5C 344.5,397.5 331.5,397.5 318.5,397.5C 318.5,384.5 318.5,371.5 318.5,358.5 Z"/></g>
<g><path style="opacity:1" fill="#fdfdfd" d="M 358.5,358.5 C 371.5,358.5 384.5,358.5 397.5,358.5C 397.5,371.5 397.5,384.5 397.5,397.5C 384.5,397.5 371.5,397.5 358.5,397.5C 358.5,384.5 358.5,371.5 358.5,358.5 Z"/></g>
<g><path style="opacity:1" fill="#fdfdfd" d="M 398.5,358.5 C 411.5,358.5 424.5,358.5 437.5,358.5C 437.5,371.5 437.5,384.5 437.5,397.5C 424.5,397.5 411.5,397.5 398.5,397.5C 398.5,384.5 398.5,371.5 398.5,358.5 Z"/></g>
<g><path style="opacity:1" fill="#fdfdfd" d="M 438.5,358.5 C 451.5,358.5 464.5,358.5 477.5,358.5C 477.5,371.5 477.5,384.5 477.5,397.5C 464.5,397.5 451.5,397.5 438.5,397.5C 438.5,384.5 438.5,371.5 438.5,358.5 Z"/></g>
<g><path style="opacity:1" fill="#fdfdfd" d="M 478.5,358.5 C 491.5,358.5 504.5,358.5 517.5,358.5C 517.5,371.5 517.5,384.5 517.5,397.5C 504.5,397.5 491.5,397.5 478.5,397.5C 478.5,384.5 478.5,371.5 478.5,358.5 Z"/></g>
<g><path style="opacity:1" fill="#fdfdfd" d="M 518.5,358.5 C 531.5,358.5 544.5,358.5 557.5,358.5C 557.5,371.5 557.5,384.5 557.5,397.5C 544.5,397.5 531.5,397.5 518.5,397.5C 518.5,384.5 518.5,371.5 518.5,358.5 Z"/></g>
<g><path style="opacity:1" fill="#fdfdfd" d="M 558.5,358.5 C 571.5,358.5 584.5,358.5 597.5,358.5C 597.5,371.5 597.5,384.5 597.5,397.5C 584.5,397.5 571.5,397.5 558.5,397.5C 558.5,384.5 558.5,371.5 558.5,358.5 Z"/></g>
<g><path style="opacity:1" fill="#fdfdfd" d="M 598.5,358.5 C 611.5,358.5 624.5,358.5 637.5,358.5C 637.5,371.5 637.5,384.5 637.5,397.5C 624.5,397.5 611.5,397.5 598.5,397.5C 598.5,384.5 598.5,371.5 598.5,358.5 Z"/></g>
<g><path style="opacity:1" fill="#fdfdfd" d="M 638.5,358.5 C 651.5,358.5 664.5,358.5 677.5,358.5C 677.5,371.5 677.5,384.5 677.5,397.5C 664.5,397.5 651.5,397.5 638.5,397.5C 638.5,384.5 638.5,371.5 638.5,358.5 Z"/></g>
<g><path style="opacity:1" fill="#fdfdfd" d="M 678.5,358.5 C 691.5,358.5 704.5,358.5 717.5,358.5C 717.5,371.5 717.5,384.5 717.5,397.5C 704.5,397.5 691.5,397.5 678.5,397.5C 678.5,384.5 678.5,371.5 678.5,358.5 Z"/></g>
<g><path style="opacity:1" fill="#fdfdfd" d="M -0.5,398.5 C 12.1667,398.5 24.8333,398.5 37.5,398.5C 37.5,411.5 37.5,424.5 37.5,437.5C 24.8333,437.5 12.1667,437.5 -0.5,437.5C -0.5,424.5 -0.5,411.5 -0.5,398.5 Z"/></g>
<g><path style="opacity:1" fill="#fdfdfd" d="M 38.5,398.5 C 51.5,398.5 64.5,398.5 77.5,398.5C 77.5,411.5 77.5,424.5 77.5,437.5C 64.5,437.5 51.5,437.5 38.5,437.5C 38.5,424.5 38.5,411.5 38.5,398.5 Z"/></g>
<g><path style="opacity:1" fill="#fdfdfd" d="M 78.5,398.5 C 91.5,398.5 104.5,398.5 117.5,398.5C 117.5,411.5 117.5,424.5 117.5,437.5C 104.5,437.5 91.5,437.5 78.5,437.5C 78.5,424.5 78.5,411.5 78.5,398.5 Z"/></g>
<g><path style="opacity:1" fill="#fdfdfd" d="M 118.5,398.5 C 131.5,398.5 144.5,398.5 157.5,398.5C 157.5,411.5 157.5,424.5 157.5,437.5C 144.5,437.5 131.5,437.5 118.5,437.5C 118.5,424.5 118.5,411.5 118.5,398.5 Z"/></g>
<g><path style="opacity:1" fill="#fdfdfd" d="M 158.5,398.5 C 171.5,398.5 184.5,398.5 197.5,398.5C 197.5,411.5 197.5,424.5 197.5,437.5C 184.5,437.5 171.5,437.5 158.5,437.5C 158.5,424.5 158.5,411.5 158.5,398.5 Z"/></g>
<g><path style="opacity:1" fill="#fdfdfd" d="M 198.5,398.5 C 211.5,398.5 224.5,398.5 237.5,398.5C 237.5,411.5 237.5,424.5 237.5,437.5C 224.5,437.5 211.5,437.5 198.5,437.5C 198.5,424.5 198.5,411.5 198.5,398.5 Z"/></g>
<g><path style="opacity:1" fill="#fdfdfd" d="M 238.5,398.5 C 251.5,398.5 264.5,398.5 277.5,398.5C 277.5,411.5 277.5,424.5 277.5,437.5C 264.5,437.5 251.5,437.5 238.5,437.5C 238.5,424.5 238.5,411.5 238.5,398.5 Z"/></g>
<g><path style="opacity:1" fill="#fdfdfd" d="M 278.5,398.5 C 291.5,398.5 304.5,398.5 317.5,398.5C 317.5,411.5 317.5,424.5 317.5,437.5C 304.5,437.5 291.5,437.5 278.5,437.5C 278.5,424.5 278.5,411.5 278.5,398.5 Z"/></g>
<g><path style="opacity:1" fill="#fdfdfd" d="M 318.5,398.5 C 331.5,398.5 344.5,398.5 357.5,398.5C 357.5,411.5 357.5,424.5 357.5,437.5C 344.5,437.5 331.5,437.5 318.5,437.5C 318.5,424.5 318.5,411.5 318.5,398.5 Z"/></g>
<g><path style="opacity:1" fill="#fdfdfd" d="M 358.5,398.5 C 371.5,398.5 384.5,398.5 397.5,398.5C 397.5,411.5 397.5,424.5 397.5,437.5C 384.5,437.5 371.5,437.5 358.5,437.5C 358.5,424.5 358.5,411.5 358.5,398.5 Z"/></g>
<g><path style="opacity:1" fill="#fdfdfd" d="M 398.5,398.5 C 411.5,398.5 424.5,398.5 437.5,398.5C 437.5,411.5 437.5,424.5 437.5,437.5C 424.5,437.5 411.5,437.5 398.5,437.5C 398.5,424.5 398.5,411.5 398.5,398.5 Z"/></g>
<g><path style="opacity:1" fill="#fdfdfd" d="M 438.5,398.5 C 451.5,398.5 464.5,398.5 477.5,398.5C 477.5,411.5 477.5,424.5 477.5,437.5C 464.5,437.5 451.5,437.5 438.5,437.5C 438.5,424.5 438.5,411.5 438.5,398.5 Z"/></g>
<g><path style="opacity:1" fill="#fdfdfd" d="M 478.5,398.5 C 491.5,398.5 504.5,398.5 517.5,398.5C 517.5,411.5 517.5,424.5 517.5,437.5C 504.5,437.5 491.5,437.5 478.5,437.5C 478.5,424.5 478.5,411.5 478.5,398.5 Z"/></g>
<g><path style="opacity:1" fill="#fdfdfd" d="M 518.5,398.5 C 531.5,398.5 544.5,398.5 557.5,398.5C 557.5,411.5 557.5,424.5 557.5,437.5C 544.5,437.5 531.5,437.5 518.5,437.5C 518.5,424.5 518.5,411.5 518.5,398.5 Z"/></g>
<g><path style="opacity:1" fill="#fdfdfd" d="M 558.5,398.5 C 571.5,398.5 584.5,398.5 597.5,398.5C 597.5,411.5 597.5,424.5 597.5,437.5C 584.5,437.5 571.5,437.5 558.5,437.5C 558.5,424.5 558.5,411.5 558.5,398.5 Z"/></g>
<g><path style="opacity:1" fill="#fdfdfd" d="M 598.5,398.5 C 611.5,398.5 624.5,398.5 637.5,398.5C 637.5,411.5 637.5,424.5 637.5,437.5C 624.5,437.5 611.5,437.5 598.5,437.5C 598.5,424.5 598.5,411.5 598.5,398.5 Z"/></g>
<g><path style="opacity:1" fill="#fdfdfd" d="M 638.5,398.5 C 651.5,398.5 664.5,398.5 677.5,398.5C 677.5,411.5 677.5,424.5 677.5,437.5C 664.5,437.5 651.5,437.5 638.5,437.5C 638.5,424.5 638.5,411.5 638.5,398.5 Z"/></g>
<g><path style="opacity:1" fill="#fdfdfd" d="M 678.5,398.5 C 691.5,398.5 704.5,398.5 717.5,398.5C 717.5,411.5 717.5,424.5 717.5,437.5C 704.5,437.5 691.5,437.5 678.5,437.5C 678.5,424.5 678.5,411.5 678.5,398.5 Z"/></g>
</svg>
